<svg width="447" height="234" viewBox="0 0 447 234" fill="none" xmlns="http://www.w3.org/2000/svg">
<g clip-path="url(#clip0)">
<path d="M247.306 29.7251H102.704V233.321H247.306V29.7251Z" fill="#F3F2F8"/>
<path d="M122.565 49.2703H118.756V53.0707H122.565V49.2703Z" fill="#9797FB"/>
<path d="M231.254 49.2703H130.863V53.0707H231.254V49.2703Z" fill="#9797FB"/>
<path d="M231.254 59.5859H130.863V63.3864H231.254V59.5859Z" fill="#CFD4FA"/>
<path d="M231.254 69.9014H130.863V73.7018H231.254V69.9014Z" fill="#CFD4FA"/>
<path d="M122.565 83.7461H118.756V87.5466H122.565V83.7461Z" fill="#9797FB"/>
<path d="M231.254 83.7461H130.863V87.5466H231.254V83.7461Z" fill="#9797FB"/>
<path d="M231.254 94.1973H130.863V97.9977H231.254V94.1973Z" fill="#CFD4FA"/>
<path d="M231.254 104.513H130.863V108.313H231.254V104.513Z" fill="#CFD4FA"/>
<path d="M122.565 118.357H118.756V122.158H122.565V118.357Z" fill="#9797FB"/>
<path d="M231.254 118.357H130.863V122.158H231.254V118.357Z" fill="#9797FB"/>
<path d="M231.254 128.673H130.863V132.474H231.254V128.673Z" fill="#CFD4FA"/>
<path d="M231.254 138.989H130.863V142.789H231.254V138.989Z" fill="#CFD4FA"/>
<path d="M122.565 187.444H118.756V191.245H122.565V187.444Z" fill="#9797FB"/>
<path d="M231.254 187.444H130.863V191.245H231.254V187.444Z" fill="#9797FB"/>
<path d="M231.254 197.76H130.863V201.56H231.254V197.76Z" fill="#CFD4FA"/>
<path d="M231.254 208.075H130.863V211.876H231.254V208.075Z" fill="#CFD4FA"/>
<path d="M122.565 152.833H118.756V156.633H122.565V152.833Z" fill="#9797FB"/>
<path d="M231.254 152.833H130.863V156.633H231.254V152.833Z" fill="#9797FB"/>
<path d="M231.254 163.149H130.863V166.949H231.254V163.149Z" fill="#CFD4FA"/>
<path d="M231.254 173.6H130.863V177.4H231.254V173.6Z" fill="#CFD4FA"/>
<path d="M83.7955 161.52C65.7033 161.52 67.7437 204.954 67.7437 204.954C67.7437 204.954 62.4385 152.019 42.4419 157.176C22.4452 162.198 35.0961 205.089 35.0961 205.089C35.0961 205.089 21.3569 166.813 5.03315 183.101C-11.2906 199.389 23.5335 233.593 23.5335 233.593H88.9647C111.682 192.874 101.888 161.52 83.7955 161.52Z" stroke="#CFD4FA" stroke-width="0.9711" stroke-miterlimit="10"/>
<path d="M267.257 158.533C283.581 158.533 288.478 207.804 288.478 207.804C288.478 207.804 294.328 142.246 312.42 146.725C330.376 151.34 317.861 207.804 317.861 207.804C317.861 207.804 334.185 169.392 348.876 184.051C363.568 198.71 328.336 233.457 328.336 233.457H269.434C249.029 196.81 250.934 158.533 267.257 158.533Z" stroke="#CFD4FA" stroke-width="0.9711" stroke-miterlimit="10"/>
<path d="M142.697 123.787C111.682 116.593 110.458 165.727 110.458 165.727C110.458 165.727 101.888 93.9258 69.5122 106.006C71.0086 116.321 84.4757 203.053 112.09 232.1C127.326 174.55 139.977 132.745 142.697 123.787Z" fill="#CFD4FA"/>
<path d="M143.921 124.194C141.201 133.152 128.414 175.364 113.042 233.457H125.693C125.693 233.457 174.664 133.288 143.921 124.194Z" fill="#CFD4FA"/>
<path d="M64.4788 108.449C41.2174 122.294 53.7323 168.985 65.9752 201.289C73.1849 220.291 91.2771 233.05 111.546 233.321C83.6593 204.682 70.0561 118.357 68.2877 106.549C66.9274 107.092 65.7031 107.77 64.4788 108.449Z" fill="#CFD4FA"/>
<path d="M143.377 123.922C143.105 123.787 142.833 123.787 142.561 123.787C139.841 132.745 127.19 174.55 111.954 232.1C84.3396 203.189 70.8725 116.321 69.3761 106.006C68.968 106.142 68.56 106.277 68.1519 106.549C69.9203 118.357 83.5234 204.682 111.41 233.321C111.682 233.321 112.09 233.321 112.362 233.321H113.042C128.414 175.229 141.201 132.881 143.921 124.058C143.785 124.058 143.649 124.058 143.377 123.922Z" fill="white"/>
<path d="M283.57 173.6C291.051 173.735 298.805 176.857 305.743 183.779C327.916 205.904 305.743 233.457 305.743 233.457H279.761C292.412 208.482 286.426 182.694 283.57 173.6Z" fill="#CFD4FA"/>
<path d="M230.653 193.824C238.679 193.281 247.113 196.538 253.235 205.361C253.235 187.444 266.838 173.871 282.617 173.6C285.338 182.286 291.732 208.347 278.809 233.457H244.665C232.422 220.02 224.532 204.818 220.995 196.945C223.58 195.181 226.708 194.095 230.653 193.824Z" fill="#CFD4FA"/>
<path d="M220.043 197.488C223.58 205.225 231.197 220.155 243.168 233.321H232.694C211.745 233.457 206.848 207.532 220.043 197.488Z" fill="#CFD4FA"/>
<path d="M282.481 173.6C282.889 173.6 283.161 173.6 283.57 173.6C286.426 182.694 292.412 208.482 279.761 233.457H278.672C291.595 208.347 285.202 182.286 282.481 173.6Z" fill="white"/>
<path d="M220.859 196.945C224.396 204.818 232.15 220.02 244.529 233.457H243.168C231.334 220.291 223.58 205.361 220.043 197.624C220.315 197.353 220.587 197.081 220.859 196.945Z" fill="white"/>
<path d="M221.122 68.2944L80.1108 208.994L93.0962 221.951L234.108 81.251L221.122 68.2944Z" fill="#9797FB"/>
<path d="M82.9794 206.175L78.8984 210.111L91.9575 223.142L95.9024 219.07L82.9794 206.175Z" fill="url(#paint0_linear)"/>
<path d="M78.8983 210.111L69.7842 219.205L82.8432 232.236L91.9573 223.142L78.8983 210.111Z" fill="url(#paint1_linear)"/>
<path d="M225.404 72.6162L87.1963 210.519" stroke="#7777EC" stroke-width="0.9711" stroke-miterlimit="10"/>
<path d="M229.757 76.9595L91.5493 214.862" stroke="#7777EC" stroke-width="0.9711" stroke-miterlimit="10"/>
<path d="M222.684 67.4583L221.052 68.2727C219.827 69.4943 219.827 71.3945 221.052 72.6161C222.276 73.8377 224.18 73.8377 225.405 72.6161L248.938 53.478L222.684 67.4583Z" fill="#D4DDED"/>
<path d="M229.758 76.9595C228.533 78.181 228.533 80.0813 229.758 81.3029C230.982 82.5244 232.886 82.5244 234.111 81.3029L234.927 79.6741L248.938 53.478L229.758 76.9595Z" fill="#D4DDED"/>
<path d="M225.405 72.6161C224.18 73.8377 224.18 75.7379 225.405 76.9595C226.629 78.181 228.533 78.181 229.758 76.9595L248.938 53.478L225.405 72.6161Z" fill="#D4DDED"/>
<path d="M236.151 60.2646L242.136 66.2367L248.938 53.478L236.151 60.2646Z" fill="#21196F"/>
<path d="M202.415 125.958C202.415 125.958 209.489 127.994 212.618 138.717C215.61 149.44 225.541 146.589 230.302 159.077C234.927 171.564 222.004 185.137 207.721 180.929C193.437 176.722 177.93 166.27 177.93 166.27C177.93 166.27 174.937 152.154 184.731 145.639C194.525 139.124 186.092 134.645 191.533 129.216" fill="#21196F"/>
<path d="M195.886 151.611C195.886 151.611 185.819 151.611 163.102 183.644C170.992 192.195 179.562 183.644 179.562 183.644L195.886 151.611Z" fill="#FCD2A8"/>
<path d="M195.886 151.611C195.886 151.611 180.65 158.534 180.65 174.007C180.65 189.616 174.937 199.796 174.937 199.796L204.32 220.02C204.32 220.02 221.188 181.337 219.283 164.642C217.515 151.204 200.511 151.611 200.511 151.611" fill="white"/>
<path d="M171.672 184.594H126.374L117.124 151.611H162.422L171.672 184.594Z" fill="#21196F"/>
<path d="M182.01 182.151H136.712V184.594H182.01V182.151Z" fill="#21196F"/>
<path d="M199.831 156.226C202.007 156.226 203.776 154.462 203.776 152.29V144.689H195.886V152.29C195.886 154.462 197.654 156.226 199.831 156.226Z" fill="#EDC294"/>
<path d="M198.334 148.082C194.253 148.082 190.988 144.825 190.988 140.753V136.545C190.988 132.473 194.253 129.216 198.334 129.216C202.415 129.216 205.68 132.473 205.68 136.545V140.753C205.68 144.825 202.415 148.082 198.334 148.082Z" fill="#FBD5A8"/>
<path d="M170.992 188.123C170.992 188.123 193.301 199.389 203.367 202.103C213.434 204.818 225.132 162.063 215.61 156.633C206.088 151.204 202.551 193.009 202.551 193.009C202.551 193.009 172.352 182.965 167.727 182.965C163.102 182.965 163.102 183.78 163.102 186.766C163.102 189.752 170.992 188.123 170.992 188.123Z" fill="#FCD2A8"/>
<path d="M88.2847 233.457H103.248L106.921 228.842H100.664C89.917 228.842 88.2847 233.457 88.2847 233.457Z" fill="#21196F"/>
<path d="M189.628 233.457C194.254 233.321 196.294 228.299 193.301 224.77C180.65 209.84 153.988 180.929 137.664 180.929C115.627 180.929 100.8 228.842 100.8 228.842H107.057L132.767 197.217L171.128 229.385C171.128 229.385 175.073 233.457 178.202 233.457C181.331 233.457 190.309 233.457 190.309 233.457" fill="url(#paint2_linear)"/>
<path d="M102.432 233.457H117.396L121.068 228.842H114.811C104.201 228.842 102.432 233.457 102.432 233.457Z" fill="#21196F"/>
<path d="M151.812 180.929C129.775 180.929 114.947 228.842 114.947 228.842H121.205L146.915 197.217C146.915 197.217 177.522 233.457 190.989 233.457C204.592 233.457 204.32 220.155 204.32 220.155C204.32 220.155 173.985 180.929 151.812 180.929Z" fill="url(#paint3_linear)"/>
<path d="M198.334 125.415C198.334 125.415 186.908 125.687 186.908 133.152C186.908 140.617 203.64 135.052 203.64 135.052L205.816 139.396H207.176C207.04 139.396 210.577 125.415 198.334 125.415Z" fill="#21196F"/>
<path d="M207.856 139.396C207.856 140.617 206.904 141.703 205.68 141.703C204.456 141.703 203.503 140.753 203.503 139.396C203.503 138.038 204.456 137.088 205.68 137.088C206.904 137.088 207.856 138.174 207.856 139.396Z" fill="#FBD5A8"/>
<path d="M195.614 138.717C195.614 138.717 193.029 143.603 195.614 143.196V138.717Z" fill="#EDC294"/>
<path d="M195.206 144.417H199.967C199.967 144.417 199.695 145.775 197.654 145.775C195.614 145.775 195.206 144.417 195.206 144.417Z" fill="white"/>
<path d="M205.952 138.31C205.952 138.31 205.136 138.31 205.136 139.667C205.952 139.667 205.952 140.617 205.952 140.617C205.952 140.617 207.04 140.482 207.04 139.396C207.04 138.31 205.952 138.31 205.952 138.31Z" fill="#EDC294"/>
</g>
<defs>
<linearGradient id="paint0_linear" x1="80.8983" y1="208.144" x2="93.9002" y2="221.175" gradientUnits="userSpaceOnUse">
<stop stop-color="#FFD13E"/>
<stop offset="1" stop-color="#D98C02"/>
</linearGradient>
<linearGradient id="paint1_linear" x1="74.3294" y1="214.698" x2="87.3314" y2="227.729" gradientUnits="userSpaceOnUse">
<stop stop-color="#8581F9"/>
<stop offset="1" stop-color="#3A339A"/>
</linearGradient>
<linearGradient id="paint2_linear" x1="100.814" y1="207.175" x2="194.765" y2="207.175" gradientUnits="userSpaceOnUse">
<stop stop-color="#5A50D1"/>
<stop offset="1" stop-color="#574ECB"/>
</linearGradient>
<linearGradient id="paint3_linear" x1="114.984" y1="207.173" x2="204.382" y2="207.173" gradientUnits="userSpaceOnUse">
<stop stop-color="#8581F9"/>
<stop offset="1" stop-color="#574ECB"/>
</linearGradient>
<clipPath id="clip0">
<rect width="447" height="234" fill="white"/>
</clipPath>
</defs>
</svg>
