<svg viewBox="0 0 446 241" fill="none" xmlns="http://www.w3.org/2000/svg"><g clip-path="url(#clip0)"><path d="M397.662 75.781L415.09 63.01c-1.737-15.421-4.041-28.256-4.041-28.256-23.206 9.492-38.677 23.242-48.907 38.537l5.557 24.188-11.871-13.276c-21.502 43.267-7.767 93.032-7.767 93.032s56.799-49.891 65.545-65.123c3.378-5.897 3.757-18.764 2.968-32.356-7.893-1.167-18.912-3.974-18.912-3.974z" fill="#CFD4FA"/><path d="M411.049 34.721s-55.411 88.806-62.988 142.513c0 0 56.799-49.891 65.545-65.123 3.378-5.897 3.757-18.764 2.968-32.356-7.862-1.167-18.881-3.973-18.881-3.973l17.429-12.773c-1.768-15.452-4.073-28.288-4.073-28.288z" fill="#BEC4EA"/><path d="M446 89.468c-15.187 1.04-28.353 5.14-39.687 11.101-.379 5.929-.948 12.993-.948 12.993l-6.662-8.578c-41.044 26.27-55.158 76.16-55.158 76.16 33.31-1.766 55.79-11.637 70.945-24.283a813.156 813.156 0 00-3.157-9.335l7.861 5.109c6.852-6.654 11.966-13.876 15.787-20.94-4.105-2.617-8.683-5.708-8.683-5.708l12.03-1.198c8.145-18.954 7.672-35.32 7.672-35.32z" fill="#CFD4FA"/><path d="M414.49 156.861c-1.231-3.752-3.157-9.334-3.157-9.334l7.861 5.108c6.852-6.654 11.967-13.875 15.787-20.94-4.105-2.617-8.683-5.708-8.683-5.708l12.03-1.198c8.146-18.922 7.703-35.258 7.703-35.258-50.137 27.374-102.454 91.676-102.454 91.676 33.246-1.829 55.726-11.7 70.913-24.346z" fill="#BEC4EA"/><path d="M48.18 90.54L34.288 77.39c3.22-13.371 6.662-24.378 6.662-24.378 19.323 10.88 31.415 24.693 38.709 39.231L72.144 112.9l11.903-10.344c14.113 40.366-3.441 82.562-3.441 82.562s-44.423-50.048-50.422-64.397c-2.305-5.551-1.232-16.904.947-28.73 7.072-.157 17.05-1.45 17.05-1.45z" fill="#CFD4FA"/><path d="M40.95 53.012s38.866 84.108 39.624 132.106c0 0-44.392-50.08-50.39-64.429-2.305-5.55-1.232-16.903.947-28.73 7.04-.157 17.05-1.419 17.05-1.419L34.287 77.39c3.22-13.34 6.662-24.378 6.662-24.378z" fill="#BEC4EA"/><path d="M0 127.438c13.355-1.861 25.511-.725 36.404 2.365a631.075 631.075 0 003.188 11.069l4.2-8.641c40.35 15.264 61.725 55.914 61.725 55.914-29.173 4.541-50.454.095-65.924-8.105.378-3.5 1.01-8.672 1.01-8.672l-5.841 5.866c-7.167-4.51-12.913-9.84-17.492-15.264 3.095-3.027 6.473-6.528 6.473-6.528l-10.64 1.167C2.589 141.692 0 127.438 0 127.438z" fill="#CFD4FA"/><path d="M39.624 180.072c.379-3.501 1.01-8.673 1.01-8.673l-5.872 5.835c-7.167-4.51-12.913-9.84-17.492-15.264 3.095-3.027 6.473-6.528 6.473-6.528l-10.64 1.167C2.589 141.692 0 127.438 0 127.438c48.433 14.57 105.517 60.739 105.517 60.739-29.173 4.541-50.454.094-65.893-8.105z" fill="#BEC4EA"/><path d="M58.663 203.629s12.092 1.546 19.038 12.52l-1.484 1.01s-9.282-10.155-16.765-11.984c-7.514-1.798-.79-1.546-.79-1.546z" fill="#3A49CD"/><path d="M63.998 173.576s12.25 18.574 5.273 41.186l-3.157-.852s3.062-24.913-3.347-37.433c-6.41-12.52 1.231-2.901 1.231-2.901z" fill="#3A49CD"/><path d="M85.279 13.277L42.845 232.39c-.853 4.446 2.557 8.609 7.104 8.609h22.353L85.28 13.277z" fill="url(#paint0_linear)"/><path d="M360.974 94.893s-9.251 12.425-5.304 28.445l2.21-.473s-1.137-17.439 3.82-25.89c4.989-8.484-.726-2.082-.726-2.082z" fill="#93B3F4"/><path d="M316.677 49.607s-5.841 19.71 6.41 37.812l2.557-1.577s-9.377-21.193-7.072-33.996c2.273-12.772-1.895-2.24-1.895-2.24z" fill="#fff"/><path d="M85.784 12.394l-28.132 215.14C56.705 234.661 62.294 241 69.492 241h41.266L87.488 11.606l-1.704.788z" fill="url(#paint1_linear)"/><path d="M85.784 12.394L73.186 226.178C72.713 234.22 79.122 241 87.173 241h61.536L85.784 12.394z" fill="url(#paint2_linear)"/><path d="M85.31 14.128l6.125 212.019c-.473 8.041 5.936 14.822 13.987 14.822h61.536L85.31 14.129z" fill="url(#paint3_linear)"/><path d="M379.949 241H137.311a12.55 12.55 0 01-12.345-10.281L88.026 29.045c-1.674-9.146 5.367-17.597 14.681-17.597h239.797c6.062 0 11.24 4.32 12.345 10.28l37.445 204.482c1.389 7.695-4.515 14.79-12.345 14.79z" fill="#F3F2F8"/><path d="M92.856 55.252h268.307l-6.883-38.065a6.943 6.943 0 00-6.851-5.708H87.552a2.28 2.28 0 00-2.242 2.68l7.546 41.093z" fill="url(#paint4_linear)"/><path d="M99.108 0c-6.41 0-11.62 5.203-11.62 11.605h2.243c0-5.172 4.23-9.397 9.408-9.397 5.178 0 9.409 4.225 9.409 9.397 0 1.041-.158 2.05-.474 2.965-.978 2.775-3.125 4.982-5.872 5.929-.79.283-1.642.441-2.526.504v2.24a10.289 10.289 0 002.968-.537c3.757-1.198 6.725-4.257 7.735-8.105.253-.946.379-1.955.379-2.964C110.758 5.203 105.517 0 99.108 0z" fill="#21196F"/><path d="M102.707 22.012c0 .22-.032.473-.095.662-.284 1.073-1.263 1.83-2.431 1.83a2.532 2.532 0 01-2.526-2.523 2.532 2.532 0 012.526-2.523c.821 0 1.547.378 1.989.977.348.473.537 1.01.537 1.577zM140.816 0c-6.41 0-11.619 5.203-11.619 11.605h2.241c0-5.172 4.231-9.397 9.409-9.397 5.178 0 9.409 4.225 9.409 9.397 0 1.041-.158 2.05-.474 2.965-.978 2.775-3.157 4.982-5.904 5.929-.789.283-1.642.441-2.526.504v2.24a10.289 10.289 0 002.968-.537 11.62 11.62 0 007.736-8.105c.252-.946.378-1.955.378-2.964C152.466 5.203 147.225 0 140.816 0z" fill="#21196F"/><path d="M144.415 22.012c0 .22-.032.473-.095.662-.284 1.073-1.263 1.83-2.431 1.83a2.532 2.532 0 01-2.526-2.523 2.532 2.532 0 012.526-2.523c.821 0 1.547.378 1.989.977.348.473.537 1.01.537 1.577zM182.523 0c-6.409 0-11.619 5.203-11.619 11.605h2.242c0-5.172 4.231-9.397 9.409-9.397 5.178 0 9.408 4.225 9.408 9.397 0 1.041-.157 2.05-.473 2.965-.979 2.775-3.157 4.982-5.904 5.929-.79.283-1.642.441-2.526.504v2.24a10.289 10.289 0 002.968-.537 11.618 11.618 0 007.735-8.105c.253-.946.379-1.955.379-2.964 0-6.434-5.21-11.637-11.619-11.637z" fill="#21196F"/><path d="M186.122 22.012c0 .22-.031.473-.094.662-.284 1.073-1.263 1.83-2.431 1.83a2.531 2.531 0 01-2.526-2.523 2.531 2.531 0 012.526-2.523c.821 0 1.547.378 1.989.977.347.473.536 1.01.536 1.577zM224.232 0c-6.41 0-11.619 5.203-11.619 11.605h2.241c0-5.172 4.231-9.397 9.409-9.397 5.178 0 9.409 4.225 9.409 9.397 0 1.041-.158 2.05-.474 2.965-.978 2.775-3.157 4.982-5.904 5.929-.789.283-1.642.441-2.526.504v2.24a10.289 10.289 0 002.968-.537 11.62 11.62 0 007.736-8.105c.252-.946.379-1.955.379-2.964 0-6.434-5.21-11.637-11.619-11.637z" fill="#21196F"/><path d="M227.831 22.012c0 .22-.032.473-.095.662-.284 1.073-1.263 1.83-2.431 1.83a2.532 2.532 0 01-2.526-2.523 2.532 2.532 0 012.526-2.523c.821 0 1.547.378 1.989.977.348.473.537 1.01.537 1.577zM265.939 0c-6.409 0-11.619 5.203-11.619 11.605h2.242c0-5.172 4.231-9.397 9.409-9.397 5.178 0 9.409 4.225 9.409 9.397 0 1.041-.158 2.05-.474 2.965-.979 2.775-3.157 4.982-5.904 5.929-.79.283-1.642.441-2.526.504v2.24a10.289 10.289 0 002.968-.537 11.618 11.618 0 007.735-8.105c.253-.946.379-1.955.379-2.964 0-6.434-5.21-11.637-11.619-11.637z" fill="#21196F"/><path d="M269.539 22.012c0 .22-.032.473-.095.662-.284 1.073-1.263 1.83-2.431 1.83a2.531 2.531 0 01-2.526-2.523 2.531 2.531 0 012.526-2.523c.821 0 1.547.378 1.989.977.347.473.537 1.01.537 1.577zM307.647 0c-6.409 0-11.619 5.203-11.619 11.605h2.242c0-5.172 4.231-9.397 9.409-9.397 5.178 0 9.409 4.225 9.409 9.397 0 1.041-.158 2.05-.474 2.965-.979 2.775-3.157 4.982-5.904 5.929-.79.283-1.642.441-2.526.504v2.24a10.289 10.289 0 002.968-.537c3.757-1.198 6.725-4.257 7.735-8.105.253-.946.379-1.955.379-2.964C319.266 5.203 314.057 0 307.647 0z" fill="#21196F"/><path d="M311.246 22.012c0 .22-.031.473-.094.662-.284 1.073-1.263 1.83-2.431 1.83a2.531 2.531 0 01-2.526-2.523 2.531 2.531 0 012.526-2.523c.821 0 1.547.378 1.989.977.347.473.536 1.01.536 1.577zM349.355 0c-6.409 0-11.619 5.203-11.619 11.605h2.242c0-5.172 4.231-9.397 9.409-9.397 5.178 0 9.409 4.225 9.409 9.397 0 1.041-.158 2.05-.474 2.965a9.431 9.431 0 01-5.841 5.897c-.789.284-1.642.442-2.526.505v2.239a10.296 10.296 0 002.968-.536c3.757-1.199 6.725-4.258 7.735-8.105.253-.946.379-1.956.379-2.965C360.974 5.203 355.765 0 349.355 0z" fill="#21196F"/><path d="M352.954 22.012c0 .22-.031.473-.094.662-.284 1.073-1.263 1.83-2.431 1.83a2.531 2.531 0 01-2.526-2.523 2.531 2.531 0 012.526-2.523c.821 0 1.547.378 1.989.977.315.473.536 1.01.536 1.577z" fill="#21196F"/><path d="M247.722 126.776h-13.577c-1.578 0-3.094-1.293-3.409-2.839l-2.621-13.56c-.316-1.577.726-2.838 2.305-2.838h13.576c1.579 0 3.094 1.293 3.41 2.838l2.621 13.56c.315 1.546-.726 2.839-2.305 2.839zM282.231 126.776h-13.576c-1.579 0-3.094-1.293-3.663-2.839l-2.62-13.56c-.032-1.577 1.01-2.838 2.557-2.838h13.577c1.578 0 3.094 1.293 3.409 2.838l2.621 13.56c.284 1.546-.758 2.839-2.305 2.839z" fill="#DDE8FE"/><path d="M316.456 126.776H302.88c-1.579 0-3.094-1.293-3.41-2.839l-2.621-13.56c-.315-1.577.727-2.838 2.305-2.838h13.577c1.578 0 3.094 1.293 3.41 2.838l2.62 13.56c.284 1.546-.758 2.839-2.305 2.839z" fill="url(#paint5_linear)"/><path d="M145.047 126.776H131.47c-1.578 0-3.094-1.293-3.41-2.839l-2.62-13.56c-.316-1.577.726-2.838 2.305-2.838h13.576c1.579 0 3.094 1.293 3.41 2.838l2.62 13.56c.316 1.546-.726 2.839-2.304 2.839z" fill="#DDE8FE"/><path d="M130.46 86.094h-5.841c-.663 0-1.326-.536-1.453-1.23l-1.136-5.834c-.126-.663.316-1.23.979-1.23h5.841c.663 0 1.326.536 1.452 1.23l1.137 5.834c.126.694-.316 1.23-.979 1.23z" fill="#9797FB"/><path d="M179.272 126.776h-13.577c-1.578 0-3.094-1.293-3.41-2.839l-2.62-13.56c-.316-1.577.726-2.838 2.305-2.838h13.576c1.579 0 3.094 1.293 3.41 2.838l2.62 13.56c.316 1.546-.726 2.839-2.304 2.839zM213.781 126.776h-13.576c-1.579 0-3.095-1.293-3.41-2.839l-2.621-13.56c-.316-1.577.726-2.838 2.305-2.838h13.576c1.579 0 3.095 1.293 3.126 2.838l2.621 13.56c.568 1.546-.474 2.839-2.021 2.839z" fill="#DDE8FE"/><path d="M350.682 126.776h-13.577c-1.578 0-3.094-1.293-3.409-2.839l-2.621-13.56c-.316-1.577.726-2.838 2.305-2.838h13.576c1.579 0 3.094 1.293 3.41 2.838l2.621 13.56c.284 1.546-.726 2.839-2.305 2.839z" fill="url(#paint6_linear)"/><path d="M242.039 97.352h-13.577c-1.578 0-3.094-1.293-3.41-2.838l-2.62-13.56c-.316-1.577.726-2.839 2.305-2.839h13.576c1.579 0 3.094 1.293 3.41 2.838l2.621 13.561c.315 1.545-.727 2.838-2.305 2.838zM276.548 97.352h-13.576c-1.579 0-3.095-1.293-3.41-2.838l-2.621-13.56c-.316-1.577.726-2.839 2.305-2.839h13.576c1.579 0 3.095 1.293 3.41 2.838l2.621 13.561c.284 1.545-.726 2.838-2.305 2.838z" fill="#DDE8FE"/><path d="M310.773 97.352h-13.576c-1.579 0-3.094-1.293-3.41-2.838l-2.621-13.56c-.315-1.577.726-2.839 2.305-2.839h13.576c1.579 0 3.095 1.293 3.41 2.838l2.621 13.561c.284 1.545-.726 2.838-2.305 2.838z" fill="url(#paint7_linear)"/><path d="M344.998 97.352h-13.576c-1.579 0-3.094-1.293-3.41-2.838l-2.621-13.56c-.315-1.577.727-2.839 2.305-2.839h13.577c1.578 0 3.094 1.293 3.41 2.838l2.62 13.561c.284 1.545-.726 2.838-2.305 2.838z" fill="url(#paint8_linear)"/><path d="M253.752 157.965h-13.576c-1.579 0-3.094-1.293-3.41-2.839l-2.621-13.56c-.315-1.577.726-2.838 2.305-2.838h13.577c1.578 0 3.094 1.293 3.409 2.838l2.621 13.56c.284 1.546-.726 2.839-2.305 2.839zM287.977 157.965h-13.576c-1.579 0-3.094-1.293-3.41-2.839l-2.621-13.56c-.315-1.577.727-2.838 2.305-2.838h13.577c1.578 0 3.094 1.293 3.409 2.838l2.621 13.56c.284 1.546-.726 2.839-2.305 2.839z" fill="#DDE8FE"/><path d="M322.487 157.965h-13.576c-1.579 0-3.095-1.293-3.41-2.839l-2.621-13.56c-.316-1.577.726-2.838 2.305-2.838h13.576c1.579 0 3.095 1.293 3.41 2.838l2.621 13.56c.284 1.546-.758 2.839-2.305 2.839z" fill="url(#paint9_linear)"/><path d="M151.077 157.965H137.5c-1.578 0-3.094-1.293-3.409-2.839l-2.621-13.56c-.316-1.577.726-2.838 2.305-2.838h13.576c1.579 0 3.094 1.293 3.41 2.838l2.621 13.56c.284 1.546-.727 2.839-2.305 2.839zM185.302 157.965h-13.576c-1.579 0-3.094-1.293-3.41-2.839l-2.62-13.56c-.316-1.577.726-2.838 2.304-2.838h13.577c1.578 0 3.094 1.293 3.41 2.838l2.62 13.56c.284 1.546-.726 2.839-2.305 2.839zM219.528 157.965h-13.577c-1.579 0-3.094-1.293-3.41-2.839l-2.62-13.56c-.316-1.577.726-2.838 2.305-2.838h13.576c1.579 0 3.094 1.293 3.41 2.838l2.62 13.56c.285 1.546-.726 2.839-2.304 2.839z" fill="#DDE8FE"/><path d="M356.712 157.965h-13.576c-1.579 0-3.094-1.293-3.41-2.839l-2.621-13.56c-.315-1.577.726-2.838 2.305-2.838h13.577c1.578 0 3.094 1.293 3.409 2.838l2.621 13.56c.284 1.546-.758 2.839-2.305 2.839z" fill="url(#paint10_linear)"/><path d="M259.783 189.154h-13.577c-1.578 0-3.094-1.293-3.409-2.838l-2.621-13.561c-.316-1.577.726-2.838 2.305-2.838h13.576c1.579 0 3.094 1.293 3.41 2.838l2.621 13.561c.284 1.545-.758 2.838-2.305 2.838zM294.26 189.154h-13.576c-1.579 0-3.094-1.293-3.41-2.838l-2.62-13.561c-.316-1.577.726-2.838 2.304-2.838h13.577c1.579 0 3.094 1.293 3.41 2.838l2.62 13.561c.316 1.545-.726 2.838-2.305 2.838z" fill="#DDE8FE"/><path d="M328.486 189.154h-13.577c-1.578 0-3.094-1.293-3.41-2.838l-2.62-13.561c-.316-1.577.726-2.838 2.305-2.838h13.576c1.579 0 3.094 1.293 3.41 2.838l2.62 13.561c.316 1.545-.726 2.838-2.304 2.838z" fill="url(#paint11_linear)"/><path d="M157.108 189.154h-13.577c-1.578 0-3.094-1.293-3.41-2.838l-2.62-13.561c-.316-1.577.726-2.838 2.305-2.838h13.576c1.579 0 3.094 1.293 3.41 2.838l2.62 13.561c.285 1.545-.757 2.838-2.304 2.838z" fill="#DDE8FE"/><path d="M191.585 189.154h-13.576c-1.579 0-3.094-1.293-3.41-2.838l-2.621-13.561c-.315-1.577.726-2.838 2.305-2.838h13.577c1.578 0 3.094 1.293 3.409 2.838l2.621 13.561c.316 1.545-.726 2.838-2.305 2.838z" fill="url(#paint12_linear)"/><path d="M225.558 189.154h-13.577c-1.578 0-3.094-1.293-3.409-2.838l-2.621-13.561c-.316-1.577.726-2.838 2.305-2.838h13.576c1.579 0 3.094 1.293 3.41 2.838l2.621 13.561c.284 1.545-.758 2.838-2.305 2.838z" fill="#DDE8FE"/><path d="M362.711 189.154h-13.577c-1.578 0-3.094-1.293-3.41-2.838l-2.62-13.561c-.316-1.577.726-2.838 2.305-2.838h13.576c1.579 0 3.094 1.293 3.41 2.838l2.621 13.561c.315 1.545-.727 2.838-2.305 2.838z" fill="url(#paint13_linear)"/><path d="M265.466 218.578H251.89c-1.579 0-3.095-1.293-3.41-2.839l-2.621-13.56c-.316-1.577.726-2.839 2.305-2.839h13.576c1.579 0 3.095 1.293 3.41 2.839l2.621 13.56c.284 1.546-.758 2.839-2.305 2.839zM299.691 218.578h-13.576c-1.579 0-3.094-1.293-3.41-2.839l-2.621-13.56c-.315-1.577.726-2.839 2.305-2.839h13.576c1.579 0 3.095 1.293 3.41 2.839l2.621 13.56c.284 1.546-.758 2.839-2.305 2.839z" fill="#DDE8FE"/><path d="M334.169 218.578h-13.577c-1.578 0-3.094-1.293-3.41-2.839l-2.62-13.56c-.316-1.577.726-2.839 2.305-2.839h13.576c1.579 0 3.094 1.293 3.41 2.839l2.62 13.56c.316 1.546-.726 2.839-2.304 2.839z" fill="url(#paint14_linear)"/><path d="M162.791 218.578h-13.577c-1.578 0-3.094-1.293-3.41-2.839l-2.62-13.56c-.316-1.577.726-2.839 2.305-2.839h13.576c1.579 0 3.094 1.293 3.41 2.839l2.621 13.56c.284 1.546-.758 2.839-2.305 2.839zM197.016 218.578h-13.577c-1.578 0-3.094-1.293-3.409-2.839l-2.621-13.56c-.316-1.577.726-2.839 2.305-2.839h13.576c1.579 0 3.094 1.293 3.41 2.839l2.621 13.56c.284 1.546-.758 2.839-2.305 2.839zM231.241 218.578h-13.576c-1.579 0-3.095-1.293-3.41-2.839l-2.621-13.56c-.316-1.577.726-2.839 2.305-2.839h13.576c1.579 0 3.094 1.293 3.41 2.839l2.621 13.56c.284 1.546-.758 2.839-2.305 2.839z" fill="#DDE8FE"/><path d="M171.568 80.764h-35.93a.95.95 0 01-.948-.946.95.95 0 01.948-.946h35.93a.95.95 0 01.947.946.95.95 0 01-.947.946zM172.673 85.116h-35.93a.95.95 0 01-.948-.946.95.95 0 01.948-.946h35.93a.95.95 0 01.947.946.97.97 0 01-.947.946z" fill="#CFD4FA"/><path d="M133.017 48.377h-12.345c-1.01 0-1.831-.82-1.831-1.83 0-1.008.821-1.828 1.831-1.828h12.345c1.01 0 1.831.82 1.831 1.829.032 1.009-.821 1.829-1.831 1.829zM166.863 48.377h-12.345c-1.01 0-1.831-.82-1.831-1.83 0-1.008.821-1.828 1.831-1.828h12.345c1.011 0 1.832.82 1.832 1.829s-.821 1.829-1.832 1.829zM200.709 48.377h-12.345c-1.01 0-1.831-.82-1.831-1.83 0-1.008.821-1.828 1.831-1.828h12.345c1.011 0 1.832.82 1.832 1.829s-.821 1.829-1.832 1.829zM234.524 48.377h-12.345c-1.01 0-1.831-.82-1.831-1.83 0-1.008.821-1.828 1.831-1.828h12.345c1.011 0 1.832.82 1.832 1.829s-.821 1.829-1.832 1.829zM268.37 48.377h-12.345c-1.01 0-1.831-.82-1.831-1.83 0-1.008.821-1.828 1.831-1.828h12.345a1.83 1.83 0 011.831 1.829c0 1.009-.82 1.829-1.831 1.829zM302.217 48.377h-12.345a1.83 1.83 0 01-1.831-1.83c0-1.008.82-1.828 1.831-1.828h12.345c1.01 0 1.831.82 1.831 1.829s-.821 1.829-1.831 1.829zM336.031 48.377h-12.345c-1.01 0-1.831-.82-1.831-1.83 0-1.008.821-1.828 1.831-1.828h12.345a1.83 1.83 0 011.831 1.829c0 1.009-.82 1.829-1.831 1.829z" fill="#fff"/><path d="M258.046 97.605c-2.715 0-4.704-.852-5.778-2.523-2.084-3.217-.473-7.726 4.768-13.371 3.82-4.132 8.272-7.412 8.335-7.443.19-.126.411-.095.537.095.126.189.095.41-.095.536-.189.126-17.365 12.835-12.882 19.773 1.421 2.207 4.452 2.334 6.757 2.081 4.262-.504 9.819-2.775 14.839-6.118 5.21-3.469 8.904-7.348 10.072-10.69.789-2.176.537-3.753-.726-4.605-1.61-1.135-5.02-1.135-9.093 0-3.884 1.072-7.799 2.996-10.23 5.046a.434.434 0 01-.568-.031.434.434 0 01.031-.568c2.495-2.113 6.536-4.1 10.514-5.204 4.357-1.198 7.894-1.166 9.756.127 1.105.756 2.147 2.333 1.011 5.518-1.232 3.5-5.02 7.538-10.388 11.101-5.146 3.406-10.829 5.74-15.186 6.244-.537 0-1.137.032-1.674.032z" fill="#ED6966"/></g><defs><linearGradient id="paint0_linear" x1="166.279" y1="156.284" x2="74.465" y2="129.249" gradientUnits="userSpaceOnUse"><stop stop-color="#8581F9"/><stop offset="1" stop-color="#574ECB"/></linearGradient><linearGradient id="paint1_linear" x1="18.639" y1="151.693" x2="69.945" y2="135.472" gradientUnits="userSpaceOnUse"><stop stop-color="#8581F9"/><stop offset="1" stop-color="#574ECB"/></linearGradient><linearGradient id="paint2_linear" x1="28.508" y1="210.239" x2="122.262" y2="121.779" gradientUnits="userSpaceOnUse"><stop stop-color="#8581F9"/><stop offset="1" stop-color="#574ECB"/></linearGradient><linearGradient id="paint3_linear" x1="47.078" y1="250.152" x2="298.522" y2="-140.615" gradientUnits="userSpaceOnUse"><stop stop-color="#8581F9"/><stop offset="1" stop-color="#574ECB"/></linearGradient><linearGradient id="paint4_linear" x1="362.598" y1="88.317" x2="-44.438" y2="-69.822" gradientUnits="userSpaceOnUse"><stop stop-color="#8581F9"/><stop offset="1" stop-color="#574ECB"/></linearGradient><linearGradient id="paint5_linear" x1="388.913" y1="189.438" x2="150.805" y2="-23.287" gradientUnits="userSpaceOnUse"><stop stop-color="#8581F9"/><stop offset="1" stop-color="#574ECB"/></linearGradient><linearGradient id="paint6_linear" x1="404.085" y1="172.455" x2="165.977" y2="-40.269" gradientUnits="userSpaceOnUse"><stop stop-color="#8581F9"/><stop offset="1" stop-color="#574ECB"/></linearGradient><linearGradient id="paint7_linear" x1="401.027" y1="175.877" x2="162.919" y2="-36.846" gradientUnits="userSpaceOnUse"><stop stop-color="#8581F9"/><stop offset="1" stop-color="#574ECB"/></linearGradient><linearGradient id="paint8_linear" x1="416.2" y1="158.894" x2="178.092" y2="-53.83" gradientUnits="userSpaceOnUse"><stop stop-color="#8581F9"/><stop offset="1" stop-color="#574ECB"/></linearGradient><linearGradient id="paint9_linear" x1="376.072" y1="203.811" x2="137.963" y2="-8.913" gradientUnits="userSpaceOnUse"><stop stop-color="#8581F9"/><stop offset="1" stop-color="#574ECB"/></linearGradient><linearGradient id="paint10_linear" x1="391.244" y1="186.828" x2="153.136" y2="-25.897" gradientUnits="userSpaceOnUse"><stop stop-color="#8581F9"/><stop offset="1" stop-color="#574ECB"/></linearGradient><linearGradient id="paint11_linear" x1="363.231" y1="218.184" x2="125.122" y2="5.46" gradientUnits="userSpaceOnUse"><stop stop-color="#8581F9"/><stop offset="1" stop-color="#574ECB"/></linearGradient><linearGradient id="paint12_linear" x1="151.369" y1="158.29" x2="186.455" y2="181.933" gradientUnits="userSpaceOnUse"><stop stop-color="#8581F9"/><stop offset="1" stop-color="#574ECB"/></linearGradient><linearGradient id="paint13_linear" x1="378.403" y1="201.201" x2="140.295" y2="-11.523" gradientUnits="userSpaceOnUse"><stop stop-color="#8581F9"/><stop offset="1" stop-color="#574ECB"/></linearGradient><linearGradient id="paint14_linear" x1="351.116" y1="231.745" x2="113.007" y2="19.021" gradientUnits="userSpaceOnUse"><stop stop-color="#8581F9"/><stop offset="1" stop-color="#574ECB"/></linearGradient><clipPath id="clip0"><path fill="#fff" d="M0 0h446v241H0z"/></clipPath></defs></svg>