<svg viewBox="0 0 324 253" fill="none" xmlns="http://www.w3.org/2000/svg"><g clip-path="url(#clip0)"><path d="M289.503 133.009l12.46-9.121c-1.242-11.025-2.883-20.146-2.883-20.146-16.539 6.774-27.624 16.604-34.896 27.496l3.946 17.268-8.513-9.475c-15.342 30.861-5.543 66.415-5.543 66.415s40.528-35.598 46.78-46.491c2.395-4.206 2.705-13.371 2.128-23.068-5.631-.886-13.479-2.878-13.479-2.878z" fill="#CFD4FA"/><path d="M299.036 103.697s-39.552 63.405-44.962 101.705c0 0 40.528-35.599 46.78-46.491 2.394-4.207 2.705-13.372 2.128-23.069-5.631-.841-13.479-2.833-13.479-2.833l12.46-9.121c-1.242-11.025-2.927-20.191-2.927-20.191z" fill="#BEC4EA"/><path d="M324 142.794c-10.863.753-20.219 3.675-28.334 7.926-.266 4.206-.665 9.254-.665 9.254l-4.744-6.111c-29.31 18.73-39.375 54.373-39.375 54.373 23.767-1.24 39.818-8.324 50.637-17.357a581.472 581.472 0 00-2.261-6.686l5.631 3.631c4.922-4.738 8.558-9.874 11.263-14.966-2.927-1.859-6.208-4.073-6.208-4.073l8.558-.842c5.853-13.504 5.498-25.149 5.498-25.149z" fill="#CFD4FA"/><path d="M301.519 190.879a603.487 603.487 0 00-2.261-6.686l5.631 3.631c4.922-4.738 8.558-9.874 11.263-14.966-2.927-1.859-6.208-4.073-6.208-4.073l8.558-.842c5.808-13.504 5.498-25.149 5.498-25.149-35.783 19.526-73.163 65.442-73.163 65.442 23.812-1.284 39.863-8.324 50.682-17.357z" fill="#BEC4EA"/><path d="M38.843 84.171L27.624 73.59c2.572-10.76 5.366-19.66 5.366-19.66 15.563 8.768 25.318 19.881 31.216 31.615l-6.075 16.648 9.578-8.324c11.395 32.544-2.794 66.548-2.794 66.548s-35.739-40.38-40.572-51.937c-1.862-4.472-1.02-13.637.754-23.157 5.72-.133 13.746-1.15 13.746-1.15z" fill="#CFD4FA"/><path d="M33.034 53.93s31.35 67.788 31.97 106.486c0 0-35.783-40.38-40.617-51.937-1.862-4.472-1.02-13.637.754-23.157 5.676-.133 13.746-1.15 13.746-1.15L27.669 73.588c2.572-10.804 5.365-19.66 5.365-19.66z" fill="#BEC4EA"/><path d="M0 113.881c10.775-1.505 20.574-.575 29.354 1.904a422.228 422.228 0 002.572 8.944l3.37-6.951c32.546 12.309 49.75 45.074 49.75 45.074-23.5 3.675-40.66.088-53.165-6.553.31-2.834.843-6.996.843-6.996l-4.745 4.738a60.54 60.54 0 01-14.1-12.309c2.483-2.436 5.232-5.269 5.232-5.269l-8.558.929C2.084 125.393 0 113.881 0 113.881z" fill="#CFD4FA"/><path d="M31.925 156.299c.31-2.834.843-6.996.843-6.996l-4.745 4.738a60.54 60.54 0 01-14.1-12.309c2.483-2.436 5.232-5.269 5.232-5.269l-8.558.929C2.085 125.393 0 113.881 0 113.881c39.065 11.734 85.09 48.971 85.09 48.971-23.545 3.675-40.705.088-53.165-6.553z" fill="#BEC4EA"/><path d="M43.686 142.824l-1.145.134 2.014 17.195 1.145-.134-2.014-17.195zM46.449 166.439l-1.145.134 1.015 8.663 1.145-.134-1.015-8.663z" fill="#007CFF"/><path d="M121.672 107.771l-1.33-3.764a12.153 12.153 0 00-12.859-7.97l-53.475 6.243c-6.652.797-11.44 6.819-10.642 13.461L58.575 245.65c.532 4.56 4.655 7.837 9.267 7.306l191.243-22.316a8.331 8.331 0 007.316-9.254l-13.169-112.287c-.532-4.561-4.656-7.837-9.267-7.306l-111.03 12.973a10.635 10.635 0 01-11.263-6.995z" fill="url(#paint0_linear)"/><path d="M127.016 51.296L66.572 63.328l16.592 83.111 60.444-12.032-16.592-83.111z" fill="#DDE8FE"/><g opacity=".4"><path opacity=".4" d="M118.967 71.33l-37.202 7.395c-1.818.354-3.547-.797-3.902-2.613a3.295 3.295 0 012.616-3.896l37.202-7.394c1.818-.355 3.547.797 3.902 2.612.355 1.771-.842 3.498-2.616 3.896zM121.672 85.056l-37.203 7.395c-1.817.354-3.547-.797-3.901-2.613a3.295 3.295 0 012.616-3.896l37.202-7.394c1.818-.355 3.547.797 3.902 2.612.399 1.771-.798 3.542-2.616 3.896zM124.421 98.782l-37.202 7.395c-1.818.354-3.547-.797-3.902-2.613a3.295 3.295 0 012.616-3.896l37.202-7.395c1.818-.354 3.548.797 3.902 2.613a3.295 3.295 0 01-2.616 3.896z" fill="#9797FB"/><path opacity=".4" d="M127.17 112.552l-37.202 7.395c-1.818.354-3.547-.797-3.902-2.613a3.295 3.295 0 012.616-3.896l37.202-7.394c1.818-.355 3.548.797 3.902 2.612a3.316 3.316 0 01-2.616 3.896zM119.765 128.315l-27.048 5.402c-1.818.354-3.547-.797-3.902-2.612a3.295 3.295 0 012.616-3.897l27.048-5.402c1.818-.354 3.547.797 3.902 2.613.355 1.771-.842 3.542-2.616 3.896z" fill="#007CFF"/></g><path d="M213.146 35.27l-61.067 8.346 11.508 83.967 61.067-8.346-11.508-83.966z" fill="#DDE8FE"/><g opacity=".4"><path opacity=".4" d="M203.836 54.771l-37.601 5.136c-1.818.266-3.503-1.018-3.769-2.834-.267-1.815 1.019-3.498 2.837-3.763l37.602-5.136c1.818-.266 3.503 1.018 3.769 2.833.266 1.816-1.02 3.498-2.838 3.764zM205.742 68.63l-37.601 5.136c-1.818.266-3.503-1.018-3.769-2.834-.266-1.815 1.02-3.498 2.838-3.763l37.601-5.136c1.818-.266 3.503 1.018 3.769 2.833.266 1.86-1.02 3.543-2.838 3.764zM180.424 86.252l-10.376 1.417c-1.818.266-3.503-1.019-3.769-2.834-.266-1.815 1.02-3.498 2.838-3.763l10.376-1.417c1.818-.266 3.503 1.018 3.769 2.834.266 1.815-1.02 3.497-2.838 3.763z" fill="#9797FB"/><path opacity=".4" d="M200.51 83.507l-10.376 1.417c-1.818.265-3.503-1.019-3.769-2.834-.266-1.815 1.02-3.498 2.838-3.764l10.376-1.416c1.818-.266 3.503 1.018 3.769 2.833.266 1.816-1.02 3.498-2.838 3.764z" fill="#007CFF"/><path opacity=".4" d="M209.556 96.392l-37.601 5.136c-1.818.265-3.503-1.019-3.769-2.834-.266-1.815 1.02-3.498 2.838-3.764l37.601-5.136c1.818-.265 3.503 1.019 3.769 2.834.266 1.86-1.02 3.542-2.838 3.764zM201.175 111.711l-27.314 3.72c-1.818.265-3.503-1.019-3.769-2.834-.266-1.815 1.02-3.498 2.838-3.764l27.314-3.719c1.818-.266 3.503 1.018 3.769 2.834.266 1.815-1.02 3.498-2.838 3.763z" fill="#9797FB"/></g><path d="M155.511 47.521l-61.4 5.344 7.368 84.424 61.4-5.343-7.368-84.425z" fill="#F3F2F8"/><g opacity=".4"><path d="M145.306 66.549l-37.823 3.276c-1.818.177-3.459-1.195-3.592-3.01-.177-1.816 1.198-3.454 3.016-3.587l37.822-3.277c1.818-.177 3.459 1.196 3.592 3.011.177 1.816-1.197 3.41-3.015 3.587zM146.503 80.496l-37.823 3.276c-1.818.178-3.458-1.195-3.591-3.01-.178-1.816 1.197-3.454 3.015-3.587l37.823-3.276c1.818-.177 3.458 1.195 3.591 3.01a3.263 3.263 0 01-3.015 3.587zM147.745 94.487l-37.823 3.277c-1.818.177-3.459-1.195-3.592-3.01-.177-1.816 1.198-3.454 3.016-3.587l37.822-3.277c1.818-.177 3.459 1.196 3.592 3.011.177 1.815-1.197 3.41-3.015 3.587zM148.942 108.435l-37.823 3.276c-1.818.177-3.459-1.195-3.592-3.01-.177-1.816 1.197-3.454 3.015-3.587l37.823-3.276c1.818-.178 3.459 1.195 3.592 3.01.177 1.816-1.153 3.41-3.015 3.587z" fill="#CFD4FA"/><path opacity=".4" d="M139.852 123.312l-27.492 2.391c-1.818.177-3.458-1.196-3.591-3.011-.178-1.815 1.197-3.454 3.015-3.586l27.491-2.391c1.818-.177 3.459 1.195 3.592 3.01.177 1.816-1.197 3.41-3.015 3.587z" fill="#007CFF"/></g><path d="M230.344 43.416l-61.56 2.967 4.093 84.645 61.56-2.968-4.093-84.644z" fill="#F3F2F8"/><g opacity=".4"><path d="M219.399 62.032l-37.911 1.816c-1.818.088-3.414-1.329-3.503-3.144-.089-1.815 1.33-3.41 3.148-3.498l37.912-1.815c1.818-.089 3.414 1.328 3.503 3.143.088 1.816-1.331 3.41-3.149 3.498zM220.064 76.024l-37.911 1.815c-1.818.089-3.414-1.328-3.503-3.144-.089-1.815 1.33-3.409 3.148-3.497l37.912-1.816c1.818-.088 3.414 1.329 3.503 3.144.088 1.86-1.331 3.41-3.149 3.498zM193.282 91.344l-10.464.487c-1.818.088-3.414-1.329-3.503-3.144-.089-1.815 1.33-3.41 3.148-3.498l10.465-.487c1.818-.088 3.414 1.328 3.503 3.144.088 1.86-1.331 3.41-3.149 3.498zM213.502 90.37l-10.464.487c-1.818.088-3.415-1.329-3.503-3.144-.089-1.815 1.33-3.41 3.148-3.498l10.464-.487c1.818-.088 3.415 1.328 3.503 3.144.133 1.86-1.286 3.41-3.148 3.498zM221.395 104.007l-37.912 1.816c-1.818.088-3.414-1.329-3.503-3.144-.089-1.816 1.33-3.41 3.148-3.498l37.912-1.815c1.818-.089 3.414 1.328 3.503 3.143.133 1.86-1.286 3.41-3.148 3.498z" fill="#CFD4FA"/><path opacity=".4" d="M211.728 118.53l-27.536 1.328c-1.818.089-3.414-1.328-3.503-3.143-.088-1.816 1.331-3.41 3.149-3.498l27.536-1.329c1.817-.088 3.414 1.329 3.502 3.144.089 1.815-1.33 3.409-3.148 3.498z" fill="#007CFF"/></g><path d="M138.743 110.206l-.975-3.675c-1.375-5.225-6.341-8.457-11.972-7.793l-53.431 6.243c-6.652.797-11.928 6.686-11.795 13.195l3.015 127.164c.089 4.472 3.902 7.66 8.47 7.129l191.242-22.316c4.567-.531 8.203-4.605 8.07-9.077l-2.616-109.94c-.089-4.472-3.902-7.66-8.469-7.129l-111.03 12.973c-4.966.576-9.312-2.214-10.509-6.774z" fill="#007CFF"/><path d="M138.743 110.206l-.975-3.675c-1.375-5.225-6.341-8.457-11.972-7.793l-53.431 6.243c-6.652.797-11.928 6.686-11.795 13.195l3.015 127.164c.089 4.472 3.902 7.66 8.47 7.129l191.242-22.316c4.567-.531 8.203-4.605 8.07-9.077l-2.616-109.94c-.089-4.472-3.902-7.66-8.469-7.129l-111.03 12.973c-4.966.576-9.312-2.214-10.509-6.774z" fill="url(#paint1_linear)"/><path d="M310.254 84.57l6.474-70.136-13.835-10.538L260.725 0l-7.316 79.345 56.845 5.225z" fill="#007CFF"/><path d="M310.254 84.57l6.474-70.136-13.835-10.538L260.725 0l-7.316 79.345 56.845 5.225z" fill="#F3F2F8"/><path d="M316.727 14.434L302.893 3.897l3.636 12.618 10.198-2.08z" fill="#9797FB"/><path d="M258.375 91.61c9.501 0 17.204-7.692 17.204-17.18s-7.703-17.18-17.204-17.18c-9.502 0-17.205 7.692-17.205 17.18s7.703 17.18 17.205 17.18z" fill="url(#paint2_linear)"/><path d="M266.897 85.188c5.957-4.7 6.971-13.33 2.265-19.28-4.706-5.948-13.35-6.96-19.307-2.261-5.957 4.699-6.971 13.33-2.265 19.279 4.706 5.948 13.35 6.961 19.307 2.262z" fill="#fff"/><path d="M266.844 73.234l-6.075-.708.71-6.066-4.346-.487-.709 6.022-6.031-.709-.532 4.34 6.075.708-.709 6.066 4.345.487.709-6.022 6.075.709.488-4.34z" fill="url(#paint3_linear)"/><path opacity=".46" d="M306.396 29.002c-.221 2.568-2.527 4.472-5.099 4.25l-30.773-2.834c-2.572-.221-4.478-2.523-4.256-5.091.221-2.569 2.527-4.473 5.099-4.251l30.772 2.834c2.617.221 4.523 2.48 4.257 5.091zM295.932 41.665c-.222 2.568-2.528 4.472-5.1 4.25l-21.505-1.992c-2.572-.221-4.478-2.524-4.257-5.092.222-2.568 2.528-4.472 5.099-4.25l21.506 1.992c2.572.221 4.478 2.48 4.257 5.092z" fill="#CFD4FA"/></g><defs><linearGradient id="paint0_linear" x1="199.777" y1="205.504" x2="21.176" y2="90.693" gradientUnits="userSpaceOnUse"><stop stop-color="#8581F9"/><stop offset="1" stop-color="#3A339A"/></linearGradient><linearGradient id="paint1_linear" x1="60.535" y1="175.588" x2="271.373" y2="175.588" gradientUnits="userSpaceOnUse"><stop stop-color="#8581F9"/><stop offset="1" stop-color="#574ECB"/></linearGradient><linearGradient id="paint2_linear" x1="237.829" y1="93.766" x2="288.02" y2="46.348" gradientUnits="userSpaceOnUse"><stop stop-color="#8581F9"/><stop offset="1" stop-color="#574ECB"/></linearGradient><linearGradient id="paint3_linear" x1="237.829" y1="93.766" x2="288.02" y2="46.348" gradientUnits="userSpaceOnUse"><stop stop-color="#8581F9"/><stop offset="1" stop-color="#574ECB"/></linearGradient><clipPath id="clip0"><path fill="#fff" d="M0 0h324v253H0z"/></clipPath></defs></svg>