<svg width="321" height="241" fill="none" xmlns="http://www.w3.org/2000/svg"><g clip-path="url(#clip0)"><path d="M25.667 191.428l-14.044-.243c-4.883-8.84-8.475-16.551-8.475-16.551 15.86-3.673 29.259-2.139 40.438 2.14l6.134 14.936 1.332-11.505c27.644 14.936 39.025 46.505 39.025 46.505s-48.872-5.208-59.244-10.012c-3.995-1.857-9.04-8.558-13.721-16.066 3.753-3.553 8.555-9.204 8.555-9.204z" fill="#CFD4FA"/><path d="M3.148 174.634s62.755 26.401 86.929 52.076c0 0-48.872-5.208-59.244-10.012-3.995-1.857-9.04-8.558-13.721-16.066 3.753-3.553 8.515-9.204 8.515-9.204l-14.044-.243c-4.843-8.84-8.435-16.551-8.435-16.551z" fill="#BEC4EA"/><path d="M5.166 216.86c8.434-5.127 16.99-7.913 25.223-9.003 2.421 2.988 5.367 6.54 5.367 6.54l.323-7.064c31.64-1.454 57.872 19.78 57.872 19.78-18.322 11.546-33.98 14.735-46.773 13.725a339.413 339.413 0 01-1.817-6.136l-2.26 5.652a55.516 55.516 0 01-16.223-5.207c1.21-2.947 2.462-6.298 2.462-6.298l-6.82 3.875C11.057 225.741 5.165 216.86 5.165 216.86z" fill="#CFD4FA"/><path d="M47.177 240.838c-.766-2.462-1.816-6.136-1.816-6.136l-2.26 5.652a55.488 55.488 0 01-16.223-5.208c1.21-2.946 2.462-6.297 2.462-6.297l-6.82 3.875C11.097 225.741 5.205 216.86 5.205 216.86c36.886-4.28 88.786 10.253 88.786 10.253-18.363 11.546-34.021 14.735-46.815 13.725z" fill="#BEC4EA"/><path d="M174.504 167.57l-48.913 19.659L65.015 36.372l41.366-16.591c4.197-1.696 8.919.363 10.614 4.52l57.509 143.269z" fill="url(#paint0_linear)"/><path d="M156.89 30.216L63.233 46.829 86.585 178.55l93.656-16.613L156.89 30.216z" fill="#BED1F9"/><path d="M133.248 47.88l-41.842 7.422.17.954 41.841-7.422-.169-.954zM141.586 43.944L82.181 54.481l.169.954 59.405-10.537-.169-.954zM150.121 55.045l-72.08 12.786.169.954L150.29 56l-.169-.954zM150.929 59.565l-72.08 12.786.168.954 72.081-12.786-.169-.954zM152.504 68.613l-72.08 12.785.169.954 72.08-12.785-.169-.954zM153.312 73.133l-72.08 12.785.169.954 72.08-12.785-.169-.954zM154.12 77.653L82.04 90.438l.169.954 72.08-12.785-.169-.954zM157.621 97.528l-72.08 12.779.169.954 72.08-12.779-.169-.954zM158.467 102.209l-72.08 12.778.169.954 72.08-12.778-.169-.954zM159.324 106.873l-72.08 12.786.17.954 72.08-12.786-.17-.954zM160.131 111.56l-72.08 12.786.17.954 72.079-12.786-.169-.954zM160.986 116.279l-72.08 12.786.169.954 72.08-12.786-.169-.954zM161.793 120.966l-72.08 12.785.169.954 72.08-12.786-.169-.953zM162.64 125.645l-72.08 12.786.169.954 72.08-12.786-.169-.954z" fill="#55769F"/><path d="M143.407 26.91L51.415 51.127l34.038 129.38 91.992-24.215-34.038-129.38z" fill="#F3F2F8"/><path d="M121.302 46.477L80.204 57.295l.246.937 41.098-10.818-.246-.937zM129.282 41.872L70.933 57.23l.247.937 58.349-15.36-.247-.936zM138.676 52.262l-70.8 18.637.247.937 70.799-18.637-.246-.937zM139.847 56.702l-70.8 18.637.247.937 70.799-18.637-.246-.937zM142.189 65.581L71.39 84.218l.247.937 70.799-18.637-.247-.937zM143.36 70.022L72.561 88.658l.247.937 70.799-18.636-.247-.937zM144.531 74.462L73.732 93.098l.247.937L144.778 75.4l-.247-.937zM149.652 93.963L78.853 112.6l.247.937L149.899 94.9l-.247-.937zM150.864 98.565l-70.8 18.636.247.937 70.799-18.636-.246-.937zM152.075 103.167l-70.8 18.636.247.937 70.799-18.636-.246-.937zM153.285 107.769l-70.799 18.637.247.936 70.799-18.636-.247-.937z" fill="#9797FB"/><path d="M154.496 112.372l-70.8 18.636.247.937 70.799-18.636-.246-.937zM155.707 116.974l-70.8 18.637.247.937 70.799-18.637-.246-.937zM156.918 121.576l-70.8 18.636.247.937 70.799-18.636-.246-.937z" fill="#55769F"/><path d="M155.94 175.038l-98.472 39.561L0 71.493l82.772-51.067c4.641-2.866 10.776-.847 12.793 4.199l60.375 150.413z" fill="#9797FB"/><path d="M189.799 26.684l11.34-8.316A322.775 322.775 0 00198.516 0c-15.053 6.176-25.142 15.138-31.761 25.069l3.592 15.744-7.708-8.64c-13.964 28.138-5.045 60.553-5.045 60.553s36.887-32.456 42.577-42.386c2.179-3.836 2.462-12.192 1.937-21.033-5.125-.766-12.309-2.623-12.309-2.623z" fill="#CFD4FA"/><path d="M198.516 0s-35.998 57.808-40.922 92.727c0 0 36.887-32.457 42.577-42.388 2.179-3.834 2.462-12.19 1.937-21.031-5.125-.767-12.268-2.584-12.268-2.584l11.34-8.316C200.01 8.356 198.516 0 198.516 0z" fill="#BEC4EA"/><path d="M221.237 35.645c-9.887.687-18.403 3.351-25.788 7.226-.242 3.835-.605 8.437-.605 8.437l-4.359-5.61c-26.676 17.115-35.837 49.572-35.837 49.572 21.632-1.13 36.241-7.59 46.088-15.825-.807-2.462-2.058-6.095-2.058-6.095l5.125 3.35c4.48-4.32 7.789-9.002 10.251-13.644-2.664-1.696-5.65-3.714-5.65-3.714l7.789-.767c5.327-12.313 5.044-22.93 5.044-22.93z" fill="#CFD4FA"/><path d="M200.736 79.445c-.807-2.462-2.058-6.095-2.058-6.095l5.125 3.35c4.48-4.32 7.789-9.002 10.251-13.644-2.664-1.696-5.65-3.714-5.65-3.714l7.789-.767c5.287-12.313 5.004-22.93 5.004-22.93-32.568 17.803-66.589 59.665-66.589 59.665 21.672-1.17 36.281-7.63 46.128-15.865z" fill="#BEC4EA"/><path d="M311.758 76.78h6.74c-1.09-.766-2.462-1.21-3.996-1.21H145.81c-8.838 0-15.981 6.338-15.981 14.17v9.001c0 7.832 7.143 14.17 15.981 14.17l166.836-.041-.888-36.09z" fill="url(#paint1_linear)"/><path d="M143.954 98.782V89.78c0-7.832 7.143-14.17 15.981-14.17h-3.632c-8.838 0-15.981 6.338-15.981 14.17v9.002c0 7.831 7.143 14.169 15.981 14.169h3.592c-8.798-.04-15.941-6.378-15.941-14.17zM183.463 98.782V89.78c0-7.832 7.143-14.17 15.982-14.17h-3.633c-8.838 0-15.981 6.338-15.981 14.17v9.002c0 7.831 7.143 14.169 15.981 14.169h3.592c-8.798-.04-15.941-6.378-15.941-14.17zM215.991 75.61c-8.435 0-15.295 6.055-15.295 13.564v10.173c0 7.468 6.86 13.564 15.295 13.564H321.04v-2.301h-.444l-26.716-2.261-5.408-18.73s10.412-10.376 11.098-10.658c.686-.283 20.986-1.09 20.986-1.09H321v-2.26H215.991z" fill="#CFD4FA"/><path d="M314.18 94.18c0-10.98 6.416-16.31 6.416-16.31H218.13c-7.749 0-14.045 5.572-14.045 12.434v7.832c0 6.863 6.296 12.433 14.045 12.433h102.466c0 .041-6.416-2.543-6.416-16.39z" fill="#DDE8FE"/><path d="M308.974 151.463h7.627a7.59 7.59 0 00-4.52-1.493H121.152c-10.009 0-18.08 7.952-18.08 17.721v11.263c0 9.81 8.112 17.722 18.08 17.722l188.831-.081-1.009-45.132z" fill="url(#paint2_linear)"/><path d="M200.575 149.969c-9.565 0-17.314 7.589-17.314 16.955v12.716c0 9.365 7.749 16.955 17.314 16.955h118.892v-2.866h-.485l-30.227-2.826-6.094-23.495s11.784-12.998 12.551-13.321c.767-.323 23.77-1.332 23.77-1.332h.485v-2.826H200.575v.04z" fill="#21196F"/><path d="M311.758 173.221c0-13.725 7.224-20.386 7.224-20.386H202.996c-8.758 0-15.901 6.984-15.901 15.583v9.809c0 8.599 7.103 15.582 15.901 15.582h115.986s-7.224-3.27-7.224-20.588z" fill="#DDE8FE"/><path d="M96.776 114.041H89.15c1.25-.767 2.825-1.211 4.52-1.211h191.05c10.009 0 18.08 6.297 18.08 14.089v8.921c0 7.791-8.112 14.089-18.08 14.089l-188.911-.041.968-35.847z" fill="url(#paint3_linear)"/><path d="M205.216 112.87c9.564 0 17.313 6.015 17.313 13.443v10.092c0 7.428-7.749 13.443-17.313 13.443H86.283v-2.261h.485l30.227-2.22 6.094-18.65s-11.784-10.294-12.551-10.577c-.767-.282-23.77-1.09-23.77-1.09h-.485v-2.26h118.933v.08z" fill="#21196F"/><path d="M93.992 131.319c0-10.9-7.224-16.188-7.224-16.188h116.026c8.798 0 15.901 5.531 15.901 12.353v7.791c0 6.822-7.103 12.353-15.901 12.353H86.768s7.224-2.584 7.224-16.309z" fill="#DDE8FE"/><path d="M267.769 135.84v-8.921c0-7.792-8.112-14.089-18.08-14.089h18.161c10.008 0 18.08 6.297 18.08 14.089v8.921c0 7.791-8.112 14.089-18.08 14.089h-17.919c9.888-.081 17.838-6.379 17.838-14.089z" fill="#21196F"/><path d="M82.328 198.129h-8.233c1.332-.848 3.027-1.333 4.843-1.333h205.983c10.775 0 19.492 7.025 19.492 15.744v9.971c0 8.679-8.717 15.744-19.492 15.744l-203.642-.081 1.05-40.045z" fill="url(#paint4_linear)"/><path d="M199.243 196.796c10.291 0 18.645 6.742 18.645 15.058v11.303c0 8.316-8.354 15.058-18.645 15.058H71.028v-2.544h.525l32.608-2.502 6.579-20.831s-12.713-11.505-13.56-11.828c-.848-.282-25.627-1.211-25.627-1.211h-.525v-2.503h128.215z" fill="#21196F"/><path d="M79.382 217.425c0-12.192-7.788-18.085-7.788-18.085H196.66c9.484 0 17.152 6.176 17.152 13.806v8.679c0 7.63-7.668 13.806-17.152 13.806H71.553c0 .04 7.83-2.866 7.83-18.206z" fill="#DDE8FE"/><path d="M24.416 83.32l52.1-29.832c4.319-2.462 9.848-.807 12.108 3.633l1.09 2.14c2.138 4.239.484 9.406-3.713 11.626L33.01 98.943a8.707 8.707 0 01-11.945-3.996l-.202-.404c-1.937-4.077-.363-8.962 3.552-11.222z" fill="#D4DDED"/></g><defs><linearGradient id="paint0_linear" x1="139.009" y1="9.954" x2="119.579" y2="102.759" gradientUnits="userSpaceOnUse"><stop stop-color="#8581F9"/><stop offset="1" stop-color="#3A339A"/></linearGradient><linearGradient id="paint1_linear" x1="129.811" y1="94.264" x2="318.497" y2="94.264" gradientUnits="userSpaceOnUse"><stop stop-color="#8581F9"/><stop offset="1" stop-color="#574ECB"/></linearGradient><linearGradient id="paint2_linear" x1="103.051" y1="173.309" x2="316.607" y2="173.309" gradientUnits="userSpaceOnUse"><stop stop-color="#8581F9"/><stop offset="1" stop-color="#574ECB"/></linearGradient><linearGradient id="paint3_linear" x1="89.131" y1="131.388" x2="302.771" y2="131.388" gradientUnits="userSpaceOnUse"><stop stop-color="#8581F9"/><stop offset="1" stop-color="#574ECB"/></linearGradient><linearGradient id="paint4_linear" x1="74.113" y1="217.5" x2="304.422" y2="217.5" gradientUnits="userSpaceOnUse"><stop stop-color="#8581F9"/><stop offset="1" stop-color="#574ECB"/></linearGradient><clipPath id="clip0"><path fill="#fff" d="M0 0h321v241H0z"/></clipPath></defs></svg>