<svg width="19" height="16" viewBox="0 0 19 16" fill="none" xmlns="http://www.w3.org/2000/svg">
<path d="M18.0147 4.37488H0.985307C0.443388 4.37488 0 3.95749 0 3.44734V1.54589C0 0.695652 0.73898 0 1.64218 0H17.3578C18.261 0 19 0.695652 19 1.54589V3.44734C19 3.95749 18.5648 4.37488 18.0147 4.37488Z" fill="#A2A2C3"/>
<path d="M11.9879 10.1874H7.0121C6.7822 10.1874 6.60156 10.0174 6.60156 9.80097V5.5343C6.60156 5.31787 6.7822 5.14783 7.0121 5.14783H11.9879C12.2178 5.14783 12.3984 5.31787 12.3984 5.5343V9.80097C12.3984 10.0097 12.2178 10.1874 11.9879 10.1874Z" fill="#A2A2C3"/>
<path d="M5.38634 10.1874H0.410545C0.18064 10.1874 0 10.0174 0 9.80097V5.5343C0 5.31787 0.18064 5.14783 0.410545 5.14783H5.38634C5.61625 5.14783 5.79689 5.31787 5.79689 5.5343V9.80097C5.79689 10.0097 5.60804 10.1874 5.38634 10.1874Z" fill="#A2A2C3"/>
<path d="M18.5895 10.1874H13.6137C13.3838 10.1874 13.2031 10.0174 13.2031 9.80097V5.5343C13.2031 5.31787 13.3838 5.14783 13.6137 5.14783H18.5895C18.8194 5.14783 19 5.31787 19 5.5343V9.80097C19 10.0097 18.8194 10.1874 18.5895 10.1874Z" fill="#A2A2C3"/>
<path d="M11.9879 16H7.0121C6.7822 16 6.60156 15.83 6.60156 15.6135V11.3469C6.60156 11.1304 6.7822 10.9604 7.0121 10.9604H11.9879C12.2178 10.9604 12.3984 11.1304 12.3984 11.3469V15.6135C12.3984 15.83 12.2178 16 11.9879 16Z" fill="#A2A2C3"/>
<path d="M5.38634 16H0.410545C0.18064 16 0 15.83 0 15.6135V11.3469C0 11.1304 0.18064 10.9604 0.410545 10.9604H5.38634C5.61625 10.9604 5.79689 11.1304 5.79689 11.3469V15.6135C5.79689 15.83 5.60804 16 5.38634 16Z" fill="#A2A2C3"/>
<path d="M18.5895 16H13.6137C13.3838 16 13.2031 15.83 13.2031 15.6135V11.3469C13.2031 11.1304 13.3838 10.9604 13.6137 10.9604H18.5895C18.8194 10.9604 19 11.1304 19 11.3469V15.6135C19 15.83 18.8194 16 18.5895 16Z" fill="#A2A2C3"/>
</svg>
