<svg width="26" height="28" viewBox="0 0 26 28" fill="none" xmlns="http://www.w3.org/2000/svg">
<path d="M21.5722 2.99502H20.4033V1.98507C20.4033 0.870647 19.4823 0 18.3842 0C17.2861 0 16.3651 0.870647 16.3651 1.98507V2.99502H9.63488V1.98507C9.63488 0.905473 8.74932 0 7.6158 0C6.48229 0 5.59673 0.870647 5.59673 1.98507V2.99502H4.42779C1.98365 2.99502 0 4.94527 0 7.34826V23.6468C0 26.0498 1.98365 28 4.42779 28H21.5722C24.0163 28 26 26.0498 26 23.6468V7.34826C26 4.94527 24.0163 2.99502 21.5722 2.99502ZM24.2289 23.6468C24.2289 25.0746 23.0245 26.2587 21.5722 26.2587H4.42779C2.97548 26.2587 1.77112 25.0746 1.77112 23.6468V7.34826C1.77112 5.9204 2.97548 4.73632 4.42779 4.73632H21.5722C23.0245 4.73632 24.2289 5.9204 24.2289 7.34826V23.6468Z" fill="#007EEC"/>
<path d="M9.77657 7.41791H5.49046C4.88828 7.41791 4.42779 7.87065 4.42779 8.46269V12.6766C4.42779 13.2687 4.88828 13.7214 5.49046 13.7214H9.77657C10.3787 13.7214 10.8392 13.2687 10.8392 12.6766V8.46269C10.8392 7.87065 10.3433 7.41791 9.77657 7.41791Z" fill="#007EEC"/>
<path d="M20.5095 7.76617H16.2589C15.6567 7.76617 15.1962 8.21891 15.1962 8.81094V13.0249C15.1962 13.6169 15.6567 14.0697 16.2589 14.0697H20.545C21.1471 14.0697 21.6076 13.6169 21.6076 13.0249V8.81094C21.5722 8.21891 21.1117 7.76617 20.5095 7.76617Z" fill="#007EEC"/>
<path d="M9.77657 16.9602H5.49046C4.88828 16.9602 4.42779 17.4129 4.42779 18.005V22.2189C4.42779 22.8109 4.88828 23.2637 5.49046 23.2637H9.77657C10.3787 23.2637 10.8392 22.8109 10.8392 22.2189V18.005C10.8392 17.4129 10.3433 16.9602 9.77657 16.9602Z" fill="#007EEC"/>
<path d="M20.5095 17.3085H16.2589C15.6567 17.3085 15.1962 17.7612 15.1962 18.3532V22.5672C15.1962 23.1592 15.6567 23.6119 16.2589 23.6119H20.545C21.1471 23.6119 21.6076 23.1592 21.6076 22.5672V18.3532C21.5722 17.7612 21.1117 17.3085 20.5095 17.3085Z" fill="#007EEC"/>
</svg>
