<svg width="23" height="27" viewBox="0 0 23 27" fill="none" xmlns="http://www.w3.org/2000/svg">
<path d="M21.625 27H3.48438C3.37249 27 3.26518 26.9556 3.18606 26.8764C3.10695 26.7973 3.0625 26.69 3.0625 26.5781V0.421875C3.0625 0.309987 3.10695 0.202681 3.18606 0.123564C3.26518 0.0444474 3.37249 0 3.48438 0L17.2637 0C17.3755 2.38939e-05 17.4828 0.044487 17.5619 0.123609L21.9233 4.48495C22.0024 4.56405 22.0469 4.67134 22.0469 4.78322V26.5781C22.0469 26.69 22.0024 26.7973 21.9233 26.8764C21.8442 26.9556 21.7369 27 21.625 27Z" fill="url(#paint0_linear)"/>
<path d="M0.953125 13.8991L2.64062 13.1537L3.8185 14.9614H0.953125V13.8991Z" fill="url(#paint1_linear)"/>
<path d="M21.2031 27H3.0625C2.95061 27 2.84331 26.9556 2.76419 26.8764C2.68507 26.7973 2.64062 26.69 2.64062 26.5781V0.421875C2.64062 0.309987 2.68507 0.202681 2.76419 0.123564C2.84331 0.0444474 2.95061 0 3.0625 0L17.0164 0L21.625 4.60856V26.5781C21.625 26.69 21.5806 26.7973 21.5014 26.8764C21.4223 26.9556 21.315 27 21.2031 27Z" fill="url(#paint2_linear)"/>
<path d="M17.0166 0V4.18669C17.0166 4.29858 17.061 4.40588 17.1402 4.485C17.2193 4.56412 17.3266 4.60856 17.4385 4.60856H21.6252L19.558 2.1195L17.0166 0Z" fill="url(#paint3_linear)"/>
<path d="M17.4155 22.1485H1.69984C1.60177 22.1485 1.50464 22.1293 1.41402 22.0918C1.3234 22.0543 1.24106 21.9993 1.17171 21.9299C1.10236 21.8606 1.04736 21.7782 1.00985 21.6876C0.972346 21.597 0.95307 21.4998 0.953125 21.4018V14.645H17.4155C17.6135 14.6451 17.8034 14.7238 17.9434 14.8639C18.0834 15.0039 18.1621 15.1937 18.1623 15.3917V21.4018C18.1623 21.5998 18.0836 21.7897 17.9435 21.9298C17.8035 22.0698 17.6136 22.1485 17.4155 22.1485Z" fill="url(#paint4_linear)"/>
<path d="M2.64062 13.1537H1.699C1.60107 13.1536 1.50409 13.1729 1.4136 13.2103C1.32311 13.2477 1.24088 13.3026 1.17161 13.3719C1.10235 13.4411 1.0474 13.5233 1.00991 13.6138C0.972421 13.7042 0.953125 13.8012 0.953125 13.8991C0.95307 13.9971 0.972324 14.0941 1.00979 14.1846C1.04725 14.2752 1.10219 14.3574 1.17146 14.4267C1.24073 14.4959 1.32298 14.5509 1.4135 14.5883C1.50402 14.6258 1.60103 14.6451 1.699 14.645H2.64062V13.1537Z" fill="url(#paint5_linear)"/>
<path d="M4.07861 16.951C4.07861 16.8539 4.11719 16.7607 4.18587 16.6921C4.25454 16.6234 4.34768 16.5848 4.4448 16.5848C4.99936 16.5517 5.55584 16.5749 6.10572 16.654C6.31842 16.7228 6.51099 16.8428 6.66655 17.0033C6.82211 17.1639 6.93592 17.3602 6.99799 17.5749C7.08381 17.8521 7.12385 18.1413 7.11653 18.4314C7.12199 18.6928 7.08451 18.9533 7.00558 19.2025C6.94743 19.4217 6.83387 19.6221 6.67583 19.7847C6.51779 19.9472 6.32059 20.0664 6.10319 20.1307C5.55404 20.2084 4.99878 20.2341 4.4448 20.2074C4.39671 20.2074 4.34909 20.198 4.30467 20.1796C4.26024 20.1612 4.21987 20.1342 4.18587 20.1002C4.15186 20.0662 4.12489 20.0258 4.10649 19.9814C4.08808 19.937 4.07861 19.8893 4.07861 19.8413V16.951ZM4.81057 17.4269V19.3675C4.81057 19.694 5.24214 19.5746 5.35689 19.5962C5.50509 19.601 5.65337 19.5894 5.79902 19.5616C5.92084 19.536 6.03227 19.4747 6.11907 19.3855C6.20587 19.2963 6.26409 19.1833 6.28629 19.0608C6.34211 18.8442 6.36696 18.6208 6.36011 18.3972C6.36803 18.1797 6.34314 17.9622 6.28629 17.7521C6.25441 17.6221 6.18605 17.504 6.08926 17.4115C5.99247 17.319 5.87128 17.2562 5.73996 17.2303C5.50751 17.2019 5.27333 17.1904 5.03922 17.1957C5.00898 17.1957 4.97904 17.2017 4.95113 17.2133C4.92322 17.225 4.8979 17.242 4.87664 17.2635C4.85537 17.285 4.83858 17.3106 4.82724 17.3386C4.8159 17.3666 4.81023 17.3966 4.81057 17.4269Z" fill="white"/>
<path d="M7.58906 18.4191C7.57102 18.1596 7.60633 17.8992 7.69282 17.6538C7.77931 17.4085 7.91514 17.1835 8.09193 16.9927C8.25495 16.8302 8.4507 16.7043 8.66616 16.6234C8.88162 16.5424 9.11184 16.5083 9.34153 16.5232C9.57794 16.5123 9.81403 16.5508 10.0347 16.6363C10.2554 16.7218 10.4558 16.8524 10.6232 17.0197C10.7905 17.207 10.9191 17.4255 11.0017 17.6627C11.0842 17.8999 11.119 18.1511 11.1041 18.4018C11.1187 18.6508 11.0841 18.9003 11.0022 19.1359C10.9203 19.3715 10.7928 19.5887 10.627 19.775C10.4608 19.9421 10.2613 20.0726 10.0416 20.158C9.82188 20.2434 9.5867 20.2818 9.35123 20.2707C9.11446 20.2823 8.87788 20.2444 8.65656 20.1595C8.43524 20.0746 8.23403 19.9445 8.06577 19.7775C7.90059 19.5938 7.77342 19.3791 7.6916 19.146C7.60978 18.9128 7.57493 18.6658 7.58906 18.4191ZM8.34295 18.3942C8.31875 18.7297 8.41993 19.0622 8.62687 19.3274C8.71829 19.4273 8.82946 19.507 8.95332 19.5617C9.07719 19.6164 9.21106 19.6447 9.34645 19.645C9.48185 19.6452 9.61582 19.6173 9.73987 19.5631C9.86393 19.5089 9.97538 19.4295 10.0672 19.3299C10.2735 19.0599 10.3733 18.7234 10.3477 18.3845C10.3733 18.0521 10.2761 17.7218 10.0743 17.4564C9.97967 17.3591 9.86644 17.2819 9.74136 17.2293C9.61627 17.1767 9.4819 17.1498 9.34621 17.1502C9.21051 17.1505 9.07628 17.1781 8.95147 17.2314C8.82667 17.2847 8.71384 17.3625 8.6197 17.4602C8.416 17.7269 8.3175 18.0592 8.34295 18.3938V18.3942Z" fill="white"/>
<path d="M14.3341 18.9844C14.3846 19.0003 14.4311 19.0271 14.4703 19.0627C14.5096 19.0983 14.5406 19.142 14.5614 19.1908C14.5822 19.2396 14.5921 19.2923 14.5906 19.3453C14.5891 19.3982 14.5761 19.4503 14.5526 19.4978C14.4607 19.6873 14.3265 19.8532 14.1602 19.9825C13.8332 20.2013 13.4407 20.3004 13.049 20.2631C12.6573 20.2257 12.2905 20.0542 12.0108 19.7775C11.6855 19.4055 11.5189 18.9209 11.5467 18.4275C11.5152 17.9163 11.6827 17.4127 12.0142 17.0222C12.1714 16.856 12.3623 16.7253 12.5742 16.639C12.7861 16.5527 13.0141 16.5128 13.2427 16.5219C13.6404 16.5049 14.0287 16.6462 14.3227 16.9146C14.3911 16.9796 14.4509 17.053 14.5007 17.1332C14.5311 17.1825 14.5494 17.2383 14.554 17.2961C14.5586 17.3538 14.5495 17.4118 14.5274 17.4654C14.5052 17.5189 14.4707 17.5664 14.4266 17.604C14.3825 17.6416 14.3301 17.6682 14.2737 17.6816C14.1982 17.6999 14.1188 17.6934 14.0473 17.663C13.9758 17.6326 13.916 17.58 13.8767 17.5129C13.8316 17.4344 13.7721 17.3651 13.7012 17.3087C13.5601 17.1981 13.3848 17.1403 13.2055 17.1454C13.0818 17.1415 12.9588 17.1655 12.8456 17.2156C12.7324 17.2657 12.6319 17.3406 12.5516 17.4348C12.3605 17.7078 12.2717 18.0394 12.3006 18.3714C12.2692 18.7164 12.3564 19.0618 12.5478 19.3505C12.6257 19.445 12.724 19.5204 12.8355 19.5709C12.9469 19.6214 13.0685 19.6458 13.1908 19.6421C13.3754 19.6458 13.5545 19.5796 13.6924 19.4569C13.7771 19.3793 13.8449 19.2851 13.8915 19.1801C13.9292 19.0995 13.9948 19.0353 14.0761 18.9994C14.1575 18.9634 14.2491 18.958 14.3341 18.9844Z" fill="white"/>
<defs>
<linearGradient id="paint0_linear" x1="12.5547" y1="-13.4945" x2="12.5547" y2="-12.412" gradientUnits="userSpaceOnUse">
<stop stop-color="#F3F7FF"/>
<stop offset="0.99" stop-color="#B5D1FF"/>
</linearGradient>
<linearGradient id="paint1_linear" x1="2.38581" y1="12.8457" x2="2.38581" y2="50.498" gradientUnits="userSpaceOnUse">
<stop stop-color="#048AC4"/>
<stop offset="1" stop-color="#35489B"/>
</linearGradient>
<linearGradient id="paint2_linear" x1="638.617" y1="-146.583" x2="638.617" y2="4157.38" gradientUnits="userSpaceOnUse">
<stop stop-color="#F3F7FF"/>
<stop offset="0.99" stop-color="#B5D1FF"/>
</linearGradient>
<linearGradient id="paint3_linear" x1="249.924" y1="-107.974" x2="249.924" y2="-18.4296" gradientUnits="userSpaceOnUse">
<stop stop-color="#F3F7FF"/>
<stop offset="0.99" stop-color="#B5D1FF"/>
</linearGradient>
<linearGradient id="paint4_linear" x1="472.414" y1="258.643" x2="472.414" y2="652.08" gradientUnits="userSpaceOnUse">
<stop stop-color="#048AC4"/>
<stop offset="1" stop-color="#35489B"/>
</linearGradient>
<linearGradient id="paint5_linear" x1="16.1406" y1="37.4936" x2="16.1406" y2="78.265" gradientUnits="userSpaceOnUse">
<stop stop-color="#048AC4"/>
<stop offset="1" stop-color="#35489B"/>
</linearGradient>
</defs>
</svg>
