<svg width="17" height="22" viewBox="0 0 17 22" fill="none" xmlns="http://www.w3.org/2000/svg">
<path d="M4.25428 17.4592C3.98163 19.3178 4.85639 21.4016 5.31082 22C-4.50474 16.6848 2.00488 6.8992 3.50447 6.0192C2.72059 7.04 2.68651 11.1584 3.50447 11.6864C3.33407 10.3136 3.87937 7.9552 5.31082 6.6176C6.74226 5.28 6.91265 2.0064 5.95836 0C10.9343 2.9568 12.1612 6.8992 11.9908 9.8912C12.8088 9.4688 13.2519 7.9552 13.0815 6.8992C20.1364 16.5088 12.9451 21.12 11.5137 22C12.7406 18.4096 11.5819 16.7552 11.1729 16.5792C11.1729 17.424 10.2186 18.48 9.50287 18.5856C10.8661 14.0448 7.83286 11.3696 6.70816 10.736C7.3898 14.3616 4.5951 15.136 4.25428 17.4592Z" fill="white"/>
</svg>
