<svg width="22" height="19" viewBox="0 0 22 19" fill="none" xmlns="http://www.w3.org/2000/svg">
<path d="M0 16.2104L2.5 13.2349C3.9375 14.5057 5.3125 15.2496 7 15.2496C8.9375 15.2496 10.1562 14.3197 10.1562 12.615C10.1562 11.0033 8.78125 10.0734 6.8125 10.0734C5.625 10.0734 4.5625 10.3834 3.65625 10.7553L1.25 9.20555L1.8125 0H13.375V3.59543H5.34375L5.15625 6.81892C5.90625 6.63295 6.59375 6.50897 7.625 6.50897C11.2812 6.50897 14.2188 8.27569 14.2188 12.553C14.2188 16.4894 11.4062 19 7.0625 19C4.03125 19 1.84375 17.9462 0 16.2104Z" fill="#808A9E"/>
<path d="M18.1562 3.75041H16V2.10767H18.1562V0H19.8438V2.10767H22V3.71941H19.8438V5.82708H18.1562V3.75041Z" fill="#808A9E"/>
</svg>
