<svg width="22" height="22" viewBox="0 0 22 22" fill="none" xmlns="http://www.w3.org/2000/svg">
<path d="M21.4102 9.56727L12.4329 0.592853C12.0504 0.210506 11.5434 0 11.0019 0C10.4604 0 9.95331 0.210506 9.57085 0.592853L0.597877 9.56298C0.593579 9.56727 0.593579 9.56727 0.589282 9.57157C-0.197142 10.362 -0.197142 11.6423 0.593579 12.4327C0.954561 12.7936 1.42727 12.9998 1.93867 13.0213C1.96015 13.0213 1.98164 13.0256 2.00313 13.0256H2.35981V19.6286C2.35981 20.9346 3.42127 22 4.73197 22H8.24295C8.59963 22 8.88756 21.7122 8.88756 21.3556V16.1746C8.88756 15.5774 9.37317 15.092 9.9705 15.092H12.0419C12.6392 15.092 13.1248 15.5774 13.1248 16.1746V21.3513C13.1248 21.7079 13.4127 21.9957 13.7694 21.9957H17.2761C18.5825 21.9957 19.6482 20.9346 19.6482 19.6243V13.0213H19.9791C20.5206 13.0213 21.0277 12.8108 21.4102 12.4284C22.1966 11.6423 22.1966 10.3577 21.4102 9.56727Z" fill="#007EEC"/>
</svg>
