<svg width="179" height="179" viewBox="0 0 179 179" fill="none" xmlns="http://www.w3.org/2000/svg">
<circle cx="89.5" cy="89.5" r="89.5" fill="#D1D1E1" fill-opacity="0.18"/>
<mask id="mask0" mask-type="alpha" maskUnits="userSpaceOnUse" x="0" y="0" width="179" height="179">
<circle cx="89.5" cy="89.5" r="89.5" fill="#D1D1E1"/>
</mask>
<g mask="url(#mask0)">
<path d="M89.6884 127.066C115.499 127.066 136.422 106.232 136.422 80.5328C136.422 54.8335 115.499 34 89.6884 34C63.8781 34 42.9548 54.8335 42.9548 80.5328C42.9548 106.232 63.8781 127.066 89.6884 127.066Z" fill="#D3D3DB"/>
<path d="M152 142.577C152 176.701 124.583 204 90.3116 204C56.0402 204 28 176.701 28 142.577C28 108.453 55.4171 142.577 89.6884 142.577C123.96 142.577 152 108.453 152 142.577Z" fill="#D3D3DB"/>
</g>
</svg>
