<svg width="139" height="30" viewBox="0 0 139 30" fill="none" xmlns="http://www.w3.org/2000/svg">
    <path d="M10.5035 17.14H3.21104V29.5425H0.549561V14.8511H10.5035V17.14Z" fill="#221F1F"/>
    <path d="M23.1721 18.311V29.4893H20.6703V28.0521C20.2445 28.5311 19.7122 28.957 19.1266 29.2231C18.4879 29.4893 17.8491 29.649 17.1039 29.649C15.6135 29.649 14.4424 29.2231 13.5375 28.4247C12.6858 27.573 12.26 26.3487 12.26 24.6986V18.311H14.8683V24.3792C14.8683 25.3906 15.0812 26.1358 15.5602 26.6149C16.0393 27.0939 16.6781 27.3601 17.5297 27.3601C18.4346 27.3601 19.1799 27.0939 19.7654 26.5084C20.2977 25.9229 20.6171 25.0712 20.6171 24.0066V18.311H23.1721Z" fill="#221F1F"/>
    <path d="M37.7571 29.5425V22.0903L33.9778 28.3182H32.8599L29.1339 22.0371V29.4893H26.7385V18.311H29.5065L33.4987 25.3373L37.6506 18.311H40.0992V29.4893L37.7571 29.5425Z" fill="#221F1F"/>
    <path d="M43.7188 18.311H46.327V22.8888H51.9693V18.311H54.5776V29.4893H51.9693V25.0712H46.327V29.4893H43.7188V18.311Z" fill="#221F1F"/>
    <path d="M69.0563 18.311V29.4892H66.5545V28.052C66.1286 28.5843 65.5963 28.9569 64.9576 29.2231C64.3188 29.4892 63.6268 29.5957 62.8284 29.5957C61.7638 29.5957 60.7524 29.3828 59.9008 28.9037C59.0491 28.4246 58.3571 27.7327 57.878 26.881C57.399 26.0293 57.1328 25.0179 57.1328 23.8469C57.1328 22.6758 57.399 21.7177 57.878 20.8128C58.3571 19.9611 59.0491 19.2691 59.9008 18.7901C60.7524 18.311 61.7106 18.0981 62.8284 18.0981C63.5736 18.0981 64.2124 18.2045 64.8511 18.4707C65.4366 18.7368 65.9689 19.1094 66.448 19.5885V18.311H69.0563ZM65.5431 26.4551C66.1818 25.8164 66.5012 24.9647 66.5012 23.9001C66.5012 22.8355 66.1818 21.9838 65.5431 21.3451C64.9043 20.7063 64.1059 20.387 63.1478 20.387C62.1896 20.387 61.3912 20.7063 60.7524 21.3451C60.1137 21.9838 59.7943 22.8355 59.7943 23.9001C59.7943 24.9647 60.1137 25.8164 60.7524 26.4551C61.3912 27.0939 62.1896 27.4133 63.1478 27.4133C64.1059 27.4133 64.9043 27.0939 65.5431 26.4551Z" fill="#221F1F"/>
    <path d="M80.7666 24.6453C81.1392 25.0712 81.3522 25.6035 81.3522 26.2422C81.3522 26.9342 81.1393 27.5197 80.6602 28.052C80.1811 28.5843 79.5424 29.0102 78.7439 29.2763C77.9455 29.5957 76.9873 29.7022 75.976 29.7022C75.1243 29.7022 74.2726 29.5957 73.4209 29.3828C72.5693 29.1699 71.8241 28.9037 71.1853 28.5311L71.9305 26.5616C72.4628 26.881 73.1016 27.0939 73.7936 27.2536C74.4855 27.4133 75.1775 27.5197 75.8695 27.5197C76.7744 27.5197 77.4132 27.36 77.9455 27.0939C78.4245 26.8277 78.6907 26.4551 78.6907 25.9761C78.6907 25.5502 78.4778 25.2309 78.1052 24.9647C77.7326 24.7518 77.2003 24.5921 76.455 24.5921H74.2726V22.8355H76.2421C76.8809 22.8355 77.4132 22.7291 77.7858 22.5161C78.1584 22.3032 78.3181 21.9838 78.3181 21.558C78.3181 21.1322 78.1052 20.8128 77.6261 20.5999C77.2003 20.387 76.5615 20.2273 75.7631 20.2273C74.6452 20.2273 73.4742 20.4934 72.1967 21.0257L71.5047 19.1094C72.9951 18.4175 74.4323 18.0981 75.976 18.0981C76.9341 18.0981 77.7858 18.2045 78.531 18.4707C79.2762 18.7368 79.8617 19.1094 80.2876 19.5353C80.7134 20.0144 80.9263 20.5466 80.9263 21.1322C80.9263 21.6645 80.7666 22.1435 80.4473 22.5694C80.1279 22.9952 79.6488 23.3146 79.0633 23.5807C79.8085 23.9001 80.394 24.2195 80.7666 24.6453Z" fill="#221F1F"/>
    <path d="M94.7129 18.311V29.4893H92.2111V28.0521C91.7852 28.5311 91.2529 28.957 90.6674 29.2231C90.0287 29.4893 89.3899 29.649 88.6447 29.649C87.1543 29.649 85.9832 29.2231 85.0783 28.4247C84.2266 27.573 83.8008 26.3487 83.8008 24.6986V18.311H86.409V24.3792C86.409 25.3906 86.622 26.1358 87.101 26.6149C87.5801 27.0939 88.2188 27.3601 89.0705 27.3601C89.9754 27.3601 90.7206 27.0939 91.3062 26.5084C91.8385 25.9229 92.1578 25.0712 92.1578 24.0066V18.311H94.7129Z" fill="#221F1F"/>
    <path d="M107.754 18.311V29.4893H105.412V26.1358H102.431L100.142 29.4893H97.321L99.9825 25.7632C99.1841 25.497 98.5453 25.0712 98.1195 24.4857C97.6937 23.9001 97.4807 23.2082 97.4807 22.3565C97.4807 21.079 97.9598 20.0676 98.8647 19.3756C99.7696 18.6836 101.047 18.311 102.644 18.311H107.754ZM100.195 22.4629C100.195 23.7405 100.994 24.326 102.644 24.326H105.412V20.5467H102.697C100.994 20.5467 100.195 21.1854 100.195 22.4629Z" fill="#221F1F"/>
    <path d="M139 17.4594V29.7022H136.711V19.3224H134.103V17.4061L139 17.4594Z" fill="#221F1F"/>
    <path d="M125.959 17.4594V29.7022H124.096L117.389 21.3983V29.7022H115.153V17.4594H117.016L123.776 25.7632V17.4594H125.959Z" fill="#221F1F"/>
    <path d="M130.111 19.1095C130.962 19.1095 131.654 19.8015 131.654 20.6531C131.654 21.5048 130.962 22.1968 130.111 22.1968C129.259 22.1968 128.567 21.5048 128.567 20.6531C128.514 19.8015 129.259 19.1095 130.111 19.1095ZM130.111 17.4594C128.301 17.4594 126.864 18.8966 126.864 20.7064C126.864 22.5162 128.301 23.9534 130.111 23.9534C131.92 23.9534 133.358 22.5162 133.358 20.7064C133.358 18.8966 131.867 17.4594 130.111 17.4594Z" fill="#221F1F"/>
    <path d="M132.985 25.1244H127.289V26.8277H132.985V25.1244Z" fill="#221F1F"/>
    <path d="M86.9414 10.0072C86.3559 9.68778 85.8768 9.26194 85.5574 8.67642C85.2381 8.09089 85.0784 7.45213 85.0784 6.70692C85.0784 5.9617 85.2381 5.32295 85.5574 4.73742C85.8768 4.15189 86.3559 3.72606 86.9414 3.40668C87.5269 3.0873 88.2189 2.92761 88.9641 2.92761C89.7093 2.92761 90.4013 3.0873 90.9869 3.40668C91.5724 3.72606 92.0515 4.15189 92.3708 4.73742C92.6902 5.32295 92.8499 5.9617 92.8499 6.70692C92.8499 7.45213 92.6902 8.09089 92.3708 8.67642C92.0515 9.26194 91.5724 9.68778 90.9869 10.0072C90.4013 10.3265 89.7093 10.4862 88.9641 10.4862C88.2189 10.5395 87.5269 10.3265 86.9414 10.0072ZM90.5078 8.41027C90.9336 7.98443 91.1465 7.45213 91.1465 6.76015C91.1465 6.06816 90.9336 5.53587 90.5078 5.11003C90.082 4.68419 89.5497 4.47127 88.9109 4.47127C88.2721 4.47127 87.7398 4.68419 87.3672 5.11003C86.9414 5.53587 86.7285 6.06816 86.7285 6.76015C86.7285 7.45213 86.9414 7.98443 87.3672 8.41027C87.7931 8.83611 88.3254 9.04902 88.9109 9.04902C89.6029 9.04902 90.082 8.83611 90.5078 8.41027Z" fill="#73707D"/>
    <path d="M94.6064 3.03406H96.3098V6.01492H100.036V3.03406H101.739V10.433H100.036V7.50535H96.3098V10.433H94.6064V3.03406Z" fill="#73707D"/>
    <path d="M110.788 3.03406V10.433H109.085V4.52449H106.317L106.264 6.01492C106.211 6.97305 106.104 7.82473 105.998 8.46348C105.891 9.10224 105.625 9.63454 105.306 10.0071C104.986 10.3798 104.561 10.5927 103.975 10.5927C103.709 10.5927 103.389 10.5394 103.017 10.433L103.123 8.99578C103.23 9.04901 103.336 9.04901 103.443 9.04901C103.815 9.04901 104.081 8.88932 104.241 8.62317C104.401 8.35702 104.507 7.98442 104.561 7.61181C104.614 7.2392 104.667 6.65368 104.667 5.90846L104.773 3.08729L110.788 3.03406Z" fill="#73707D"/>
    <path d="M120.263 3.03406V10.433H118.613V9.47485C118.347 9.84746 117.974 10.1136 117.549 10.2733C117.123 10.433 116.644 10.5394 116.165 10.5394C115.473 10.5394 114.781 10.3798 114.248 10.0604C113.663 9.741 113.237 9.31516 112.918 8.72964C112.598 8.14411 112.438 7.50536 112.438 6.76014C112.438 6.01493 112.598 5.32294 112.918 4.79064C113.237 4.20512 113.663 3.77928 114.248 3.4599C114.834 3.14052 115.473 2.98083 116.165 2.98083C116.644 2.98083 117.069 3.08729 117.495 3.24698C117.921 3.40667 118.241 3.67282 118.56 3.9922V3.08729L120.263 3.03406ZM117.921 8.41026C118.347 7.98442 118.56 7.45213 118.56 6.76014C118.56 6.06816 118.347 5.53586 117.921 5.11002C117.495 4.68418 116.963 4.47127 116.324 4.47127C115.685 4.47127 115.153 4.68418 114.781 5.11002C114.355 5.53586 114.142 6.06816 114.142 6.76014C114.142 7.45213 114.355 7.98442 114.781 8.41026C115.206 8.8361 115.739 9.04902 116.324 9.04902C117.016 9.04902 117.549 8.8361 117.921 8.41026Z" fill="#73707D"/>
    <path d="M129.578 3.03406V10.433H127.928V9.47485C127.662 9.79422 127.289 10.0604 126.917 10.2201C126.491 10.3798 126.065 10.4862 125.586 10.4862C124.575 10.4862 123.83 10.2201 123.244 9.68777C122.658 9.15547 122.392 8.30379 122.392 7.2392V3.03406H124.096V7.02628C124.096 7.66504 124.255 8.19734 124.522 8.51671C124.841 8.83609 125.267 8.99578 125.799 8.99578C126.385 8.99578 126.917 8.78286 127.236 8.41025C127.609 8.03765 127.769 7.45212 127.769 6.76013V3.03406C127.769 3.03406 129.578 3.03406 129.578 3.03406Z" fill="#73707D"/>
    <path d="M131.867 3.03406H133.571V6.01492H137.297V3.03406H139V10.433H137.297V7.50535H133.571V10.433H131.867V3.03406Z" fill="#73707D"/>
    <path d="M125.959 2.12919C126.547 2.12919 127.023 1.65255 127.023 1.06459C127.023 0.476635 126.547 0 125.959 0C125.371 0 124.894 0.476635 124.894 1.06459C124.894 1.65255 125.371 2.12919 125.959 2.12919Z" fill="#73707D"/>
</svg>
