<svg width="178" height="33" viewBox="0 0 178 33" fill="none" xmlns="http://www.w3.org/2000/svg">
<g clip-path="url(#clip0)">
<path d="M28.1584 20.3337L26.5615 21.2386L5.05676 8.83613C4.68415 8.62322 4.52446 8.14415 4.79061 7.77154C5.00353 7.39893 5.4826 7.23924 5.8552 7.50539L28.1584 20.3337Z" fill="url(#paint0_linear)"/>
<path d="M30.4474 16.3948L16.3415 8.25061L7.66507 3.19379C4.25837 1.27753 0 3.72609 0 7.61186V27.8391C0 31.7249 4.20514 34.1202 7.55861 32.204L10.5395 30.5006L16.3947 27.1471L24.4856 22.5162L3.99222 10.6992C2.60825 9.90073 2.12919 8.09092 2.92763 6.70695C3.72608 5.26975 5.53589 4.79068 6.91986 5.58913L30.2344 19.0562L30.3941 18.9498C31.4587 18.4175 31.4587 16.927 30.4474 16.3948Z" fill="url(#paint1_linear)"/>
<path d="M49.5035 17.14H42.211V29.5425H39.5496V14.8511H49.5035V17.14Z" fill="#221F1F"/>
<path d="M62.1721 18.311V29.4893H59.6703V28.0521C59.2445 28.5311 58.7122 28.957 58.1266 29.2231C57.4879 29.4893 56.8491 29.649 56.1039 29.649C54.6135 29.649 53.4424 29.2231 52.5375 28.4247C51.6858 27.573 51.26 26.3487 51.26 24.6986V18.311H53.8683V24.3792C53.8683 25.3906 54.0812 26.1358 54.5602 26.6149C55.0393 27.0939 55.6781 27.3601 56.5297 27.3601C57.4346 27.3601 58.1799 27.0939 58.7654 26.5084C59.2977 25.9229 59.6171 25.0712 59.6171 24.0066V18.311H62.1721Z" fill="#221F1F"/>
<path d="M76.7571 29.5425V22.0903L72.9778 28.3182H71.8599L68.1339 22.0371V29.4893H65.7385V18.311H68.5065L72.4987 25.3373L76.6506 18.311H79.0992V29.4893L76.7571 29.5425Z" fill="#221F1F"/>
<path d="M82.7188 18.311H85.327V22.8888H90.9693V18.311H93.5776V29.4893H90.9693V25.0712H85.327V29.4893H82.7188V18.311Z" fill="#221F1F"/>
<path d="M108.056 18.311V29.4892H105.554V28.052C105.129 28.5843 104.596 28.9569 103.958 29.2231C103.319 29.4892 102.627 29.5957 101.828 29.5957C100.764 29.5957 99.7524 29.3828 98.9008 28.9037C98.0491 28.4246 97.3571 27.7327 96.878 26.881C96.399 26.0293 96.1328 25.0179 96.1328 23.8469C96.1328 22.6758 96.399 21.7177 96.878 20.8128C97.3571 19.9611 98.0491 19.2691 98.9008 18.7901C99.7524 18.311 100.711 18.0981 101.828 18.0981C102.574 18.0981 103.212 18.2045 103.851 18.4707C104.437 18.7368 104.969 19.1094 105.448 19.5885V18.311H108.056ZM104.543 26.4551C105.182 25.8164 105.501 24.9647 105.501 23.9001C105.501 22.8355 105.182 21.9838 104.543 21.3451C103.904 20.7063 103.106 20.387 102.148 20.387C101.19 20.387 100.391 20.7063 99.7524 21.3451C99.1137 21.9838 98.7943 22.8355 98.7943 23.9001C98.7943 24.9647 99.1137 25.8164 99.7524 26.4551C100.391 27.0939 101.19 27.4133 102.148 27.4133C103.106 27.4133 103.904 27.0939 104.543 26.4551Z" fill="#221F1F"/>
<path d="M119.767 24.6453C120.139 25.0712 120.352 25.6035 120.352 26.2422C120.352 26.9342 120.139 27.5197 119.66 28.052C119.181 28.5843 118.542 29.0102 117.744 29.2763C116.945 29.5957 115.987 29.7022 114.976 29.7022C114.124 29.7022 113.273 29.5957 112.421 29.3828C111.569 29.1699 110.824 28.9037 110.185 28.5311L110.931 26.5616C111.463 26.881 112.102 27.0939 112.794 27.2536C113.486 27.4133 114.178 27.5197 114.87 27.5197C115.774 27.5197 116.413 27.36 116.945 27.0939C117.425 26.8277 117.691 26.4551 117.691 25.9761C117.691 25.5502 117.478 25.2309 117.105 24.9647C116.733 24.7518 116.2 24.5921 115.455 24.5921H113.273V22.8355H115.242C115.881 22.8355 116.413 22.7291 116.786 22.5161C117.158 22.3032 117.318 21.9838 117.318 21.558C117.318 21.1322 117.105 20.8128 116.626 20.5999C116.2 20.387 115.562 20.2273 114.763 20.2273C113.645 20.2273 112.474 20.4934 111.197 21.0257L110.505 19.1094C111.995 18.4175 113.432 18.0981 114.976 18.0981C115.934 18.0981 116.786 18.2045 117.531 18.4707C118.276 18.7368 118.862 19.1094 119.288 19.5353C119.713 20.0144 119.926 20.5466 119.926 21.1322C119.926 21.6645 119.767 22.1435 119.447 22.5694C119.128 22.9952 118.649 23.3146 118.063 23.5807C118.809 23.9001 119.394 24.2195 119.767 24.6453Z" fill="#221F1F"/>
<path d="M133.713 18.311V29.4893H131.211V28.0521C130.785 28.5311 130.253 28.957 129.667 29.2231C129.029 29.4893 128.39 29.649 127.645 29.649C126.154 29.649 124.983 29.2231 124.078 28.4247C123.227 27.573 122.801 26.3487 122.801 24.6986V18.311H125.409V24.3792C125.409 25.3906 125.622 26.1358 126.101 26.6149C126.58 27.0939 127.219 27.3601 128.071 27.3601C128.975 27.3601 129.721 27.0939 130.306 26.5084C130.838 25.9229 131.158 25.0712 131.158 24.0066V18.311H133.713Z" fill="#221F1F"/>
<path d="M146.754 18.311V29.4893H144.412V26.1358H141.431L139.142 29.4893H136.321L138.983 25.7632C138.184 25.497 137.545 25.0712 137.119 24.4857C136.694 23.9001 136.481 23.2082 136.481 22.3565C136.481 21.079 136.96 20.0676 137.865 19.3756C138.77 18.6836 140.047 18.311 141.644 18.311H146.754ZM139.195 22.4629C139.195 23.7405 139.994 24.326 141.644 24.326H144.412V20.5467H141.697C139.994 20.5467 139.195 21.1854 139.195 22.4629Z" fill="#221F1F"/>
<path d="M178 17.4594V29.7022H175.711V19.3224H173.103V17.4061L178 17.4594Z" fill="#221F1F"/>
<path d="M164.959 17.4594V29.7022H163.096L156.389 21.3983V29.7022H154.153V17.4594H156.016L162.776 25.7632V17.4594H164.959Z" fill="#221F1F"/>
<path d="M169.111 19.1095C169.962 19.1095 170.654 19.8015 170.654 20.6531C170.654 21.5048 169.962 22.1968 169.111 22.1968C168.259 22.1968 167.567 21.5048 167.567 20.6531C167.514 19.8015 168.259 19.1095 169.111 19.1095ZM169.111 17.4594C167.301 17.4594 165.864 18.8966 165.864 20.7064C165.864 22.5162 167.301 23.9534 169.111 23.9534C170.92 23.9534 172.358 22.5162 172.358 20.7064C172.358 18.8966 170.867 17.4594 169.111 17.4594Z" fill="#221F1F"/>
<path d="M171.985 25.1244H166.289V26.8277H171.985V25.1244Z" fill="#221F1F"/>
<path d="M125.941 10.0072C125.356 9.68778 124.877 9.26194 124.557 8.67642C124.238 8.09089 124.078 7.45213 124.078 6.70692C124.078 5.9617 124.238 5.32295 124.557 4.73742C124.877 4.15189 125.356 3.72606 125.941 3.40668C126.527 3.0873 127.219 2.92761 127.964 2.92761C128.709 2.92761 129.401 3.0873 129.987 3.40668C130.572 3.72606 131.051 4.15189 131.371 4.73742C131.69 5.32295 131.85 5.9617 131.85 6.70692C131.85 7.45213 131.69 8.09089 131.371 8.67642C131.051 9.26194 130.572 9.68778 129.987 10.0072C129.401 10.3265 128.709 10.4862 127.964 10.4862C127.219 10.5395 126.527 10.3265 125.941 10.0072ZM129.508 8.41027C129.934 7.98443 130.147 7.45213 130.147 6.76015C130.147 6.06816 129.934 5.53587 129.508 5.11003C129.082 4.68419 128.55 4.47127 127.911 4.47127C127.272 4.47127 126.74 4.68419 126.367 5.11003C125.941 5.53587 125.728 6.06816 125.728 6.76015C125.728 7.45213 125.941 7.98443 126.367 8.41027C126.793 8.83611 127.325 9.04902 127.911 9.04902C128.603 9.04902 129.082 8.83611 129.508 8.41027Z" fill="#73707D"/>
<path d="M133.606 3.03406H135.31V6.01492H139.036V3.03406H140.739V10.433H139.036V7.50535H135.31V10.433H133.606V3.03406Z" fill="#73707D"/>
<path d="M149.788 3.03406V10.433H148.085V4.52449H145.317L145.264 6.01492C145.211 6.97305 145.104 7.82473 144.998 8.46348C144.891 9.10224 144.625 9.63454 144.306 10.0071C143.986 10.3798 143.561 10.5927 142.975 10.5927C142.709 10.5927 142.389 10.5394 142.017 10.433L142.123 8.99578C142.23 9.04901 142.336 9.04901 142.443 9.04901C142.815 9.04901 143.081 8.88932 143.241 8.62317C143.401 8.35702 143.507 7.98442 143.561 7.61181C143.614 7.2392 143.667 6.65368 143.667 5.90846L143.773 3.08729L149.788 3.03406Z" fill="#73707D"/>
<path d="M159.263 3.03406V10.433H157.613V9.47485C157.347 9.84746 156.974 10.1136 156.549 10.2733C156.123 10.433 155.644 10.5394 155.165 10.5394C154.473 10.5394 153.781 10.3798 153.248 10.0604C152.663 9.741 152.237 9.31516 151.918 8.72964C151.598 8.14411 151.438 7.50536 151.438 6.76014C151.438 6.01493 151.598 5.32294 151.918 4.79064C152.237 4.20512 152.663 3.77928 153.248 3.4599C153.834 3.14052 154.473 2.98083 155.165 2.98083C155.644 2.98083 156.069 3.08729 156.495 3.24698C156.921 3.40667 157.241 3.67282 157.56 3.9922V3.08729L159.263 3.03406ZM156.921 8.41026C157.347 7.98442 157.56 7.45213 157.56 6.76014C157.56 6.06816 157.347 5.53586 156.921 5.11002C156.495 4.68418 155.963 4.47127 155.324 4.47127C154.685 4.47127 154.153 4.68418 153.781 5.11002C153.355 5.53586 153.142 6.06816 153.142 6.76014C153.142 7.45213 153.355 7.98442 153.781 8.41026C154.206 8.8361 154.739 9.04902 155.324 9.04902C156.016 9.04902 156.549 8.8361 156.921 8.41026Z" fill="#73707D"/>
<path d="M168.578 3.03406V10.433H166.928V9.47485C166.662 9.79422 166.289 10.0604 165.917 10.2201C165.491 10.3798 165.065 10.4862 164.586 10.4862C163.575 10.4862 162.83 10.2201 162.244 9.68777C161.658 9.15547 161.392 8.30379 161.392 7.2392V3.03406H163.096V7.02628C163.096 7.66504 163.255 8.19734 163.522 8.51671C163.841 8.83609 164.267 8.99578 164.799 8.99578C165.385 8.99578 165.917 8.78286 166.236 8.41025C166.609 8.03765 166.769 7.45212 166.769 6.76013V3.03406C166.769 3.03406 168.578 3.03406 168.578 3.03406Z" fill="#73707D"/>
<path d="M170.867 3.03406H172.571V6.01492H176.297V3.03406H178V10.433H176.297V7.50535H172.571V10.433H170.867V3.03406Z" fill="#73707D"/>
<path d="M164.959 2.12919C165.547 2.12919 166.023 1.65255 166.023 1.06459C166.023 0.476635 165.547 0 164.959 0C164.371 0 163.894 0.476635 163.894 1.06459C163.894 1.65255 164.371 2.12919 164.959 2.12919Z" fill="#73707D"/>
</g>
<defs>
<linearGradient id="paint0_linear" x1="4.68372" y1="14.306" x2="28.1525" y2="14.306" gradientUnits="userSpaceOnUse">
<stop stop-color="#0189F0"/>
<stop offset="1" stop-color="#0069E6"/>
</linearGradient>
<linearGradient id="paint1_linear" x1="0" y1="17.7028" x2="31.1993" y2="17.7028" gradientUnits="userSpaceOnUse">
<stop stop-color="#0189F0"/>
<stop offset="1" stop-color="#0069E6"/>
</linearGradient>
<clipPath id="clip0">
<rect width="178" height="32.8959" fill="white"/>
</clipPath>
</defs>
</svg>
