<svg width="22" height="22" viewBox="0 0 22 22" fill="none" xmlns="http://www.w3.org/2000/svg">
<path d="M11 0C4.93005 0 0 4.93005 0 11C0 17.0557 4.93005 22 11 22C17.0557 22 22 17.0699 22 11C21.9858 4.93005 17.0557 0 11 0ZM11 20.4184C5.79922 20.4184 1.56736 16.1865 1.56736 10.9858C1.56736 5.79922 5.79922 1.56736 11 1.56736C16.2008 1.56736 20.4326 5.79922 20.4326 11C20.4184 16.1865 16.1865 20.4184 11 20.4184Z" fill="#808A9E"/>
<path d="M11.8834 5.54275H7.55181V14.2202H6.81088V15.987H7.55181V17.4119H9.48964V15.987H11.5984V14.206H9.47539V13.0091H11.6554C14.0777 13.0091 16.0583 11.7267 16.0583 9.24741C16.0725 7.01036 14.4482 5.54275 11.8834 5.54275ZM11.7267 11.2707H9.47539V7.30959H11.7267C13.1801 7.30959 14.1062 7.97927 14.1062 9.27591C14.1062 10.4443 13.1943 11.2707 11.7267 11.2707Z" fill="#808A9E"/>
</svg>
