<svg width="23" height="27" viewBox="0 0 23 27" fill="none" xmlns="http://www.w3.org/2000/svg">
<path d="M21.625 27H3.48438C3.37249 27 3.26518 26.9556 3.18606 26.8764C3.10695 26.7973 3.0625 26.69 3.0625 26.5781V0.421875C3.0625 0.309987 3.10695 0.202681 3.18606 0.123564C3.26518 0.0444474 3.37249 0 3.48438 0L17.2637 0C17.3755 2.38939e-05 17.4828 0.044487 17.5619 0.123609L21.9233 4.48495C22.0024 4.56405 22.0469 4.67134 22.0469 4.78322V26.5781C22.0469 26.69 22.0024 26.7973 21.9233 26.8764C21.8442 26.9556 21.7369 27 21.625 27Z" fill="url(#paint0_linear)"/>
<path d="M0.953125 13.8991L2.64063 13.1537L3.8185 14.9614H0.953125V13.8991Z" fill="url(#paint1_linear)"/>
<path d="M21.2031 27H3.0625C2.95061 27 2.84331 26.9556 2.76419 26.8764C2.68507 26.7973 2.64062 26.69 2.64062 26.5781V0.421875C2.64062 0.309987 2.68507 0.202681 2.76419 0.123564C2.84331 0.0444474 2.95061 0 3.0625 0L17.0164 0L21.625 4.60856V26.5781C21.625 26.69 21.5806 26.7973 21.5014 26.8764C21.4223 26.9556 21.315 27 21.2031 27Z" fill="url(#paint2_linear)"/>
<path d="M17.0166 0V4.18669C17.0166 4.29858 17.061 4.40588 17.1402 4.485C17.2193 4.56412 17.3266 4.60856 17.4385 4.60856H21.6252L19.558 2.1195L17.0166 0Z" fill="url(#paint3_linear)"/>
<path d="M17.4155 22.1485H1.69984C1.60177 22.1485 1.50464 22.1293 1.41402 22.0918C1.3234 22.0543 1.24106 21.9993 1.17171 21.9299C1.10236 21.8605 1.04736 21.7782 1.00985 21.6876C0.972346 21.597 0.95307 21.4998 0.953125 21.4018V14.645H17.4155C17.6135 14.6451 17.8034 14.7238 17.9434 14.8639C18.0834 15.0039 18.1621 15.1937 18.1623 15.3917V21.4018C18.1623 21.5998 18.0836 21.7897 17.9435 21.9298C17.8035 22.0698 17.6136 22.1485 17.4155 22.1485Z" fill="url(#paint4_linear)"/>
<path d="M2.64062 13.1537H1.699C1.60107 13.1536 1.50409 13.1729 1.4136 13.2103C1.32311 13.2477 1.24088 13.3026 1.17161 13.3719C1.10235 13.4411 1.0474 13.5233 1.00991 13.6138C0.972421 13.7042 0.953125 13.8012 0.953125 13.8991C0.95307 13.9971 0.972324 14.0941 1.00979 14.1846C1.04725 14.2752 1.10219 14.3574 1.17146 14.4267C1.24073 14.4959 1.32298 14.5509 1.4135 14.5883C1.50402 14.6258 1.60103 14.6451 1.699 14.645H2.64062V13.1537Z" fill="url(#paint5_linear)"/>
<path d="M4.32813 19.8434V16.9519C4.32807 16.9038 4.3375 16.8561 4.35588 16.8116C4.37426 16.7671 4.40122 16.7267 4.43523 16.6927C4.46924 16.6586 4.50963 16.6316 4.55408 16.6132C4.59854 16.5948 4.64619 16.5853 4.69431 16.5853C5.25416 16.5638 5.81483 16.582 6.37211 16.6397C6.59761 16.7051 6.7936 16.8464 6.92696 17.0396C7.06033 17.2329 7.12289 17.4663 7.10406 17.7003C7.1207 17.9484 7.04851 18.1943 6.90042 18.394C6.75232 18.5938 6.53798 18.7343 6.29575 18.7904C5.92471 18.8348 5.55092 18.8522 5.17736 18.8423C5.14614 18.8423 5.1162 18.8547 5.09413 18.8768C5.07206 18.8989 5.05966 18.9288 5.05966 18.96V19.8434C5.05966 19.8915 5.0502 19.939 5.03181 19.9834C5.01343 20.0278 4.98649 20.0681 4.95253 20.1021C4.91856 20.136 4.87824 20.163 4.83386 20.1813C4.78949 20.1997 4.74192 20.2092 4.69389 20.2092C4.59688 20.2092 4.50385 20.1706 4.43526 20.1021C4.36666 20.0335 4.32813 19.9404 4.32813 19.8434ZM5.05966 17.3164V18.1091C5.05966 18.1403 5.07206 18.1702 5.09413 18.1923C5.1162 18.2144 5.14614 18.2268 5.17736 18.2268C5.46563 18.2467 5.75527 18.2275 6.03841 18.1698C6.13854 18.13 6.22292 18.0586 6.2787 17.9664C6.33449 17.8742 6.35864 17.7663 6.34746 17.6591C6.33628 17.5519 6.2904 17.4514 6.21679 17.3727C6.14318 17.294 6.04588 17.2415 5.93969 17.2232C5.6862 17.2013 5.43173 17.193 5.17736 17.1983C5.1619 17.1983 5.14661 17.2014 5.13235 17.2074C5.11809 17.2133 5.10514 17.2221 5.09425 17.233C5.08336 17.244 5.07474 17.257 5.06888 17.2713C5.06301 17.2856 5.06002 17.3009 5.06008 17.3164H5.05966Z" fill="white"/>
<path d="M7.70313 16.9513C7.70307 16.9032 7.7125 16.8555 7.73088 16.811C7.74926 16.7665 7.77622 16.7261 7.81023 16.6921C7.84424 16.658 7.88463 16.631 7.92908 16.6126C7.97354 16.5942 8.02119 16.5847 8.06931 16.5847C8.62373 16.5516 9.18007 16.5748 9.72981 16.6539C9.94257 16.7227 10.1352 16.8426 10.2908 17.0032C10.4465 17.1637 10.5604 17.36 10.6225 17.5748C10.7081 17.852 10.7482 18.1412 10.741 18.4312C10.7466 18.6927 10.709 18.9532 10.6297 19.2024C10.5715 19.4215 10.458 19.622 10.2999 19.7846C10.1419 19.9471 9.94468 20.0662 9.72728 20.1305C9.17827 20.2082 8.62315 20.234 8.06931 20.2073C7.97241 20.2073 7.87946 20.1689 7.81083 20.1005C7.74219 20.0321 7.70346 19.9393 7.70313 19.8424V16.9513ZM8.43466 17.3158V19.4804C8.43466 19.5116 8.44706 19.5416 8.46913 19.5637C8.4912 19.5857 8.52114 19.5981 8.55236 19.5981C8.84319 19.6142 9.13489 19.6026 9.42353 19.5635C9.54527 19.5379 9.65661 19.4766 9.74333 19.3874C9.83005 19.2982 9.88821 19.1852 9.91038 19.0628C9.96637 18.8462 9.99137 18.6228 9.98463 18.3992C9.99244 18.1816 9.9674 17.9642 9.91038 17.7541C9.87839 17.6238 9.80973 17.5054 9.71253 17.4129C9.61533 17.3204 9.49367 17.2577 9.36194 17.2323C9.09245 17.2026 8.82128 17.191 8.55025 17.1977C8.51925 17.1981 8.48968 17.2108 8.46796 17.2329C8.44624 17.255 8.43412 17.2848 8.43423 17.3158H8.43466Z" fill="white"/>
<path d="M11.3657 19.8429V16.9513C11.3657 16.8541 11.4043 16.7608 11.4731 16.6921C11.5419 16.6233 11.6351 16.5847 11.7323 16.5847H13.5434C13.6248 16.5847 13.7028 16.617 13.7603 16.6745C13.8178 16.7321 13.8501 16.8101 13.8501 16.8914C13.8501 16.9317 13.8422 16.9715 13.8268 17.0087C13.8114 17.0459 13.7888 17.0797 13.7603 17.1081C13.7318 17.1366 13.698 17.1591 13.6608 17.1745C13.6236 17.1899 13.5837 17.1978 13.5434 17.1977H12.2171C12.2016 17.1977 12.1862 17.2008 12.1719 17.2067C12.1576 17.2126 12.1446 17.2213 12.1337 17.2323C12.1228 17.2433 12.1141 17.2563 12.1082 17.2707C12.1023 17.285 12.0993 17.3003 12.0994 17.3158V17.9377C12.0993 17.9532 12.1023 17.9685 12.1082 17.9828C12.1141 17.9972 12.1228 18.0102 12.1337 18.0212C12.1446 18.0321 12.1576 18.0409 12.1719 18.0468C12.1862 18.0527 12.2016 18.0558 12.2171 18.0558H13.3055C13.3868 18.0558 13.4647 18.0881 13.5222 18.1455C13.5797 18.2029 13.6121 18.2808 13.6122 18.3621C13.6121 18.4434 13.5797 18.5213 13.5223 18.5788C13.4648 18.6363 13.3868 18.6687 13.3055 18.6688H12.2171C12.2016 18.6688 12.1863 18.6718 12.172 18.6777C12.1577 18.6837 12.1448 18.6923 12.1338 18.7033C12.1229 18.7142 12.1142 18.7272 12.1083 18.7414C12.1024 18.7557 12.0994 18.771 12.0994 18.7865V19.8412C12.0993 19.9382 12.0606 20.0312 11.992 20.0998C11.9233 20.1684 11.8302 20.2069 11.7332 20.2069C11.6851 20.2072 11.6375 20.1979 11.5931 20.1797C11.5486 20.1616 11.5082 20.1348 11.474 20.101C11.4399 20.0672 11.4128 20.027 11.3942 19.9827C11.3756 19.9384 11.3659 19.8909 11.3657 19.8429Z" fill="white"/>
<defs>
<linearGradient id="paint0_linear" x1="12.5547" y1="-13.4945" x2="12.5547" y2="-12.412" gradientUnits="userSpaceOnUse">
<stop stop-color="#F3F7FF"/>
<stop offset="0.99" stop-color="#B5D1FF"/>
</linearGradient>
<linearGradient id="paint1_linear" x1="2.38581" y1="12.8457" x2="2.38581" y2="50.498" gradientUnits="userSpaceOnUse">
<stop stop-color="#FF5252"/>
<stop offset="1" stop-color="#D50000"/>
</linearGradient>
<linearGradient id="paint2_linear" x1="638.617" y1="-146.583" x2="638.617" y2="4157.38" gradientUnits="userSpaceOnUse">
<stop stop-color="#F3F7FF"/>
<stop offset="0.99" stop-color="#B5D1FF"/>
</linearGradient>
<linearGradient id="paint3_linear" x1="249.924" y1="-107.974" x2="249.924" y2="-18.4296" gradientUnits="userSpaceOnUse">
<stop stop-color="#F3F7FF"/>
<stop offset="0.99" stop-color="#B5D1FF"/>
</linearGradient>
<linearGradient id="paint4_linear" x1="472.414" y1="258.643" x2="472.414" y2="652.079" gradientUnits="userSpaceOnUse">
<stop stop-color="#FF5252"/>
<stop offset="1" stop-color="#D50000"/>
</linearGradient>
<linearGradient id="paint5_linear" x1="16.1406" y1="37.4936" x2="16.1406" y2="78.265" gradientUnits="userSpaceOnUse">
<stop stop-color="#FF5252"/>
<stop offset="1" stop-color="#D50000"/>
</linearGradient>
</defs>
</svg>
