<svg width="11" height="11" viewBox="0 0 11 11" fill="none" xmlns="http://www.w3.org/2000/svg">
<path d="M5.96888 0.307819L7.25213 3.02839C7.33439 3.20057 7.48245 3.30389 7.64697 3.33832L10.5425 3.78601C10.9867 3.85489 11.1512 4.40589 10.8386 4.73305L8.74925 6.85096C8.61764 6.97149 8.56828 7.16089 8.60118 7.3503L9.09474 10.3464C9.177 10.7941 8.71635 11.1557 8.3215 10.9318L5.755 9.51987C5.60694 9.43377 5.40951 9.43377 5.26145 9.51987L2.69495 10.9318C2.30011 11.1384 1.83945 10.7941 1.92171 10.3464L2.41527 7.3503C2.44817 7.16089 2.38236 6.98871 2.2672 6.85096L0.161358 4.73305C-0.151228 4.40589 0.0132911 3.85489 0.457492 3.78601L3.33657 3.35554C3.51755 3.32111 3.66561 3.21779 3.73142 3.04561L5.01467 0.325037C5.21209 -0.105432 5.77146 -0.105432 5.96888 0.307819Z" fill="#FF7A00"/>
</svg>
