<svg width="15" height="18" viewBox="0 0 15 18" fill="none" xmlns="http://www.w3.org/2000/svg">
<path d="M15 1.60419V2.67916C15 2.97685 14.7602 3.21665 14.4625 3.21665H0.537486C0.239802 3.21665 0 2.97685 0 2.67916V1.60419C0 1.31477 0.239802 1.07497 0.537486 1.07497H4.55623L4.87045 0.446527C4.99449 0.198456 5.30871 0 5.58159 0H9.41014C9.68302 0 10.0055 0.198456 10.1295 0.446527L10.4438 1.07497H14.4625C14.7602 1.07497 15 1.31477 15 1.60419ZM1.07497 4.28335H13.9333V15.5375C13.9333 16.4223 13.2139 17.1417 12.3291 17.1417H2.67916C1.79438 17.1417 1.07497 16.4223 1.07497 15.5375V4.28335ZM3.75413 14.4625C3.75413 14.7602 3.99394 15 4.29162 15C4.58931 15 4.82911 14.7602 4.82911 14.4625V6.96251C4.82911 6.66483 4.58931 6.42503 4.29162 6.42503C3.99394 6.42503 3.75413 6.66483 3.75413 6.96251V14.4625ZM6.96251 14.4625C6.96251 14.7602 7.20231 15 7.5 15C7.79768 15 8.03749 14.7602 8.03749 14.4625V6.96251C8.03749 6.66483 7.79768 6.42503 7.5 6.42503C7.20231 6.42503 6.96251 6.66483 6.96251 6.96251V14.4625ZM10.1792 14.4625C10.1792 14.7602 10.419 15 10.7166 15C11.0143 15 11.2541 14.7602 11.2541 14.4625V6.96251C11.2541 6.66483 11.0143 6.42503 10.7166 6.42503C10.419 6.42503 10.1792 6.66483 10.1792 6.96251V14.4625Z" fill="#ED6666"/>
</svg>
